<?xml version="1.0" encoding="utf-8"?>
<!-- Generator: Adobe Illustrator 27.3.1, SVG Export Plug-In . SVG Version: 6.00 Build 0)  -->
<svg version="1.1" id="Layer_1" xmlns="http://www.w3.org/2000/svg" xmlns:xlink="http://www.w3.org/1999/xlink" x="0px" y="0px"
	 viewBox="0 0 32 32" style="enable-background:new 0 0 32 32;" xml:space="preserve">
<style type="text/css">
	.st0{fill:#D45F10;}
	.st1{fill:#D15C0E;}
	.st2{fill:#CE5B0D;}
	.st3{fill:#F08C37;}
	.st4{fill:#EF8A38;}
	.st5{fill:#D25E0F;}
	.st6{fill:#F08D3A;}
	.st7{fill:#D45E0F;}
	.st8{fill:#D36011;}
	.st9{fill:#FBB671;}
	.st10{fill:#F1903E;}
	.st11{fill:#FBB570;}
	.st12{fill:#FBB571;}
	.st13{fill:#F08E39;}
	.st14{fill:#F38F3C;}
	.st15{fill:#F59241;}
	.st16{fill:#FBB672;}
	.st17{fill:#536D0F;}
	.st18{fill:#C5432A;}
	.st19{fill:#D0430E;}
	.st20{fill:#5E7312;}
	.st21{fill:#D04710;}
	.st22{fill:#D04813;}
	.st23{fill:#506C0E;}
	.st24{fill:#506B0D;}
	.st25{fill:#CF4611;}
	.st26{fill:#CB440E;}
	.st27{fill:#A85758;}
	.st28{fill:#A75459;}
	.st29{fill:#54700F;}
	.st30{fill:#A85459;}
	.st31{fill:#CFB160;}
	.st32{fill:#372E1A;}
	.st33{fill:#362E19;}
	.st34{fill:#506E0F;}
	.st35{fill:#A8545A;}
	.st36{fill:#A85657;}
	.st37{fill:#5D7412;}
	.st38{fill:#362D19;}
	.st39{fill:#AA545A;}
	.st40{fill:#5E7513;}
	.st41{fill:#352D19;}
	.st42{fill:#78982A;}
	.st43{fill:#79972B;}
	.st44{fill:#EC5343;}
	.st45{fill:#EE9865;}
	.st46{fill:#F46A3B;}
	.st47{fill:#F56536;}
	.st48{fill:#F56437;}
	.st49{fill:#77972A;}
	.st50{fill:#79992A;}
	.st51{fill:#7C9A2B;}
	.st52{fill:#779329;}
	.st53{fill:#F7683C;}
	.st54{fill:#F7693C;}
	.st55{fill:#F0BDCB;}
	.st56{fill:#E2A0B4;}
	.st57{fill:#E2A2B7;}
	.st58{fill:#575130;}
	.st59{fill:#E1A0B7;}
	.st60{fill:#EEB9C2;}
	.st61{fill:#554E2E;}
	.st62{fill:#E098AE;}
	.st63{fill:#5A5431;}
	.st64{fill:#372F1B;}
	.st65{fill:#352E1A;}
	.st66{fill:#F7B772;}
	.st67{fill:#F8B571;}
	.st68{fill:#ECB77D;}
	.st69{fill:#F7B471;}
</style>
<g>
	<path class="st0" d="M27.7,19.5c0.4,1.1,0.2,2-0.5,2.9c-1,1.3-2.1,2.5-3.3,3.5c-0.1,0.1-0.1,0.1-0.2,0.2c-0.3,0.5-0.8,0.8-1.3,1.1
		c-1.2,0.9-2.6,1.7-4,2.4c-1.3,0.6-2.7,1.1-4.1,1.4c-1.4,0.3-2.7,0.5-4.1,0.6c-0.7,0-1.4,0.1-2.1-0.3c-0.3-0.2-0.5-0.3-0.7-0.6
		c0-0.1,0-0.2,0.2-0.3c0.3,0,0.4,0.2,0.6,0.4c0.1,0.2,0.3,0.3,0.5,0.3c0.2,0.1,0.3,0,0.4-0.2c0.3-0.2,0.5-0.4,0.7-0.6
		c0.2,0,0.2,0.2,0.2,0.4c0,0.4,0.2,0.5,0.6,0.5c0.3,0,0.3-0.2,0.4-0.4c0.4-0.1,0.7-0.2,1.1-0.1c0.1,0.1,0,0.2-0.1,0.3
		c0.3,0,0.6-0.1,1-0.1c0.9-0.2,1.9-0.3,2.8-0.7c0.2-0.1,0.2-0.1,0.1-0.3c0-0.1,0.1-0.2,0.2-0.2c0.5-0.2,1-0.4,1.5-0.5
		c0.1,0,0.1,0,0.2,0c0.1,0.1,0.1,0.3,0.3,0.2c0.2-0.1,0.5-0.2,0.5-0.6c0.4-0.3,0.9-0.5,1.3-0.8c0.8-0.5,1.6-1,2.4-1.6
		c0.1-0.1,0.2-0.2,0.4-0.2c0.1,0.1,0.2,0.1,0.4,0c0.9-0.7,1.7-1.5,2.4-2.4c0.6-0.6,0.9-1.3,1.6-1.8c0.2-0.1,0.3-0.4,0.4-0.6
		c0-0.2,0-0.3-0.2-0.3c0-0.4,0-0.8,0-1.2c0.2-0.2,0.1-0.3,0-0.5c-0.3-0.3-0.7-0.5-1-0.8c-0.2-0.2-0.5-0.3-0.8-0.3
		c-0.2,0-0.3,0.1-0.3,0.3c-0.1,0.3-0.3,0.5-0.5,0.7c-0.3,0-0.3-0.2-0.4-0.3c0-0.1,0-0.1,0.1-0.2c0.3-0.4,0.3-0.4,0-0.9
		c0,0,0-0.1,0-0.1c0,0,0.1-0.1,0.1-0.1c-0.1-0.1-0.1,0-0.2,0c-0.1,0-0.1-0.1-0.1-0.2c0.1-0.2,0.3-0.2,0.5-0.1c0.1,0,0.2,0.1,0.3,0.1
		c0.4,0.4,0.9,0.5,1.4,0.6c0.7,0.2,1.2,0.6,1.5,1.3C27.7,19.4,27.7,19.4,27.7,19.5z"/>
	<path class="st1" d="M5.4,12.2c-0.5-0.2-0.9-0.5-1.2-1C4,10.7,4,10.2,4.3,9.7C4.7,9.2,5.1,9,5.8,9.1c0.1,0,0.2,0,0.3,0
		c0.1,0.1,0.3,0.1,0.4,0.2C6.8,9.4,6.8,9.4,6.8,9c0-2.4,0-4.7-0.1-7.1c0-0.9,0.7-1.6,1.4-1.6c0.4,0,0.7,0.1,0.9,0.3
		c1.9,2,3.8,4,5.6,6c0,0,0,0.1,0,0.1c0.1,0.2,0.2,0.4,0.4,0.5c0.1,0.1,0.2,0.2,0.3,0.4c0,0.1,0.1,0.3,0,0.4c-0.1,0.1-0.3,0-0.4-0.1
		c-0.1-0.1-0.2-0.2-0.3-0.3c-0.1-0.1-0.2-0.2-0.3-0.2c-0.4-0.3-0.8-0.8-1.2-1.2c-1.4-1.5-2.9-3.1-4.3-4.6C8.8,1.5,8.7,1.4,8.7,1.3
		c0,0.9,0,1.8,0,2.7c0,1.5,0,3,0,4.5c0,0.2,0,0.4-0.1,0.7c-0.2,0.8-0.9,1.3-1.8,1.1C6.5,10.1,6.2,10,5.9,9.8c-0.4-0.2-0.7-0.1-1,0.2
		c-0.2,0.3-0.2,0.6,0,0.9c0.2,0.2,0.4,0.4,0.7,0.5c0.5,0.2,1,0.5,1.5,0.8c0.3,0.2,0.6,0.5,0.8,0.8C8,13.3,8.1,13.4,8,13.5
		c-0.3,0.2-0.7,0.1-0.8-0.2c-0.2-0.5-0.6-0.7-1-0.8C5.9,12.5,5.7,12.4,5.4,12.2z"/>
	<path class="st2" d="M14.4,7.3c0.2,0,0.2,0.1,0.3,0.2c0.1,0.2,0.3,0.3,0.4,0.5c0.1,0.1,0.1,0.1,0.2,0c0.1-0.1,0-0.1,0-0.2
		c-0.1-0.2-0.1-0.4-0.4-0.5c-0.2-0.1-0.2-0.3-0.2-0.5c0.7,0.7,1.3,1.4,2,2.1c1.5,1.6,3,3.2,4.5,4.8c0,0,0.1,0.1,0.1,0.1
		c0.8,0.7,1.4,1.5,2.2,2.2c0.4,0.4,0.8,0.8,1.1,1.2c0.1,0.1,0.2,0.2,0.2,0.4c-0.2,0-0.4-0.3-0.6,0c0,0.1,0,0.1-0.1,0.1
		c-0.2,0-0.3-0.1-0.3-0.2c-2.3-2.4-4.5-4.8-6.8-7.3c-0.8-0.9-1.6-1.7-2.4-2.6C14.5,7.5,14.4,7.4,14.4,7.3z"/>
	<path class="st3" d="M12.1,30.8c-0.4,0-0.7,0.1-1.1,0.1C11,30.9,10.9,31,10.8,31c-0.2,0-0.4,0.1-0.5,0c-0.1-0.2,0-0.3,0.1-0.5
		c0.3-0.8,0.1-1.6-0.4-2.3C10,28,9.8,27.9,9.9,27.8c0.3-0.2,0.7-0.1,1-0.2c0.3,0,0.6-0.1,0.9-0.1c0.3,0,0.7-0.1,1-0.2
		c0.4-0.1,0.8-0.2,1.3-0.3c0.4-0.1,0.9-0.2,1.3-0.4c0.6-0.2,1.2-0.4,1.7-0.7c0.5-0.2,0.9-0.5,1.4-0.7c0.4-0.2,0.7-0.4,1.1-0.7
		c0.1-0.1,0.2-0.2,0.4-0.2c0.2,0,0.3,0.1,0.3,0.3c0,0.2-0.2,0.2-0.3,0.3c-0.3,0.2-0.6,0.3-0.7,0.6c0,0.1-0.1,0.2-0.2,0.2
		c0.2,0.2,0.5-0.2,0.7,0c0,0.1,0.1,0.2,0.2,0.2c0.2,0.1,0.3,0.3,0.2,0.5c0,0.2-0.2,0.2-0.4,0.2c-0.1,0-0.1,0-0.2,0.1
		c0.1,0.1,0.2,0.3,0.4,0.4c0.1,0,0.1,0.1,0,0.2c-0.2,0.2-0.1,0.5-0.1,0.8c-0.4,0.3-0.8,0.5-1.3,0.7c-0.2,0.3-0.5,0.3-0.8,0.4
		c-0.6,0.2-1.2,0.5-1.8,0.7c-0.3,0.3-0.7,0.3-1,0.4c-0.8,0.2-1.7,0.4-2.5,0.5C12.3,30.8,12.2,30.8,12.1,30.8z"/>
	<path class="st4" d="M19.7,25.7c-0.1,0-0.2-0.1-0.3,0c-0.2,0.2-0.4,0.1-0.6,0c0,0,0.4-0.4,0.4-0.5c0.1-0.2,0.4-0.2,0.6-0.4
		c0.1-0.1,0.3,0,0.3-0.1c0-0.2-0.2-0.2-0.3-0.3c0.1-0.2,0.3-0.4,0.5-0.4c0.1,0,0,0.2,0.2,0.2c0.1-0.1,0.1-0.2,0.1-0.3
		c0-0.1,0-0.1,0.1-0.1c0.1,0,0.2,0,0.2-0.1c0-0.1,0.1-0.2,0.2-0.2c0,0,0.1,0,0.1,0c0.1,0.1,0.2,0.1,0.3-0.1c0.1-0.2,0.2-0.4,0.4-0.5
		c0.1-0.1,0.1-0.2,0.1-0.3c0.2-0.4,0.6-0.7,0.9-1c0.5-0.5,1-1.1,1.4-1.7c0.1-0.1,0.2-0.3,0.3-0.3c0.2-0.2,0.4-0.4,0.5-0.7
		c0.4-0.2,0.7,0,1,0.1c0.5,0.2,1,0.6,1.1,1.2c0.1,0.4,0.1,0.8,0,1.1c0.1,0.2-0.1,0.4-0.2,0.5c-0.7,1-1.5,1.9-2.4,2.8
		c-0.1,0.1-0.2,0.2-0.3,0.2c-0.2,0-0.1-0.2-0.1-0.3c0-0.1,0.1-0.1,0.1-0.2c0-0.2,0.2-0.4,0-0.6c-0.3-0.2-0.5-0.4-0.9-0.2
		c-0.1,0-0.2,0.1-0.2,0.2c0,0.1,0,0.1,0,0.2c-0.1,0.2-0.1,0.4-0.3,0.5c-0.2,0.1-0.2-0.2-0.3-0.3c-0.2-0.1-0.4-0.4-0.7-0.3
		c-0.1,0-0.2,0.1-0.3,0.2c-0.1,0.3-0.3,0.5-0.4,0.7c-0.1,0.1-0.2,0.2-0.2,0.3c-0.1,0.1-0.2,0.2-0.3,0.2c-0.1,0.1-0.3,0.1-0.4,0.1
		C19.9,25.2,19.8,25.4,19.7,25.7C19.8,25.7,19.7,25.7,19.7,25.7z"/>
	<path class="st5" d="M12.8,27.4c-0.3,0.1-0.7,0.2-1,0.2c-0.2-0.1-0.1-0.3-0.4-0.3c-0.3,0-0.5,0.1-0.6,0.5c-0.3,0-0.6,0-1,0.1
		c-0.3-0.3-0.5-0.3-0.7,0.1c0,0.1-0.1,0.2-0.2,0.2c-0.2-0.1-0.5-0.2-0.7-0.4c0,0,0,0,0-0.1c0.1-0.1,0.3,0,0.3-0.2
		c0-0.2,0-0.5-0.1-0.7c-0.1-0.3-0.2,0-0.4-0.1c-0.1-0.4-0.2-0.8,0-1.2c0.3,0.1,0.3,0.1,0.3-0.3c-0.1,0.1-0.1,0.2-0.3,0.3
		c-0.2-0.1-0.1-0.2-0.1-0.3c0-0.2,0-0.4,0-0.6c0-0.2-0.1-0.5,0-0.7c0.5-0.2,0.4-0.6,0.4-0.9c-0.2-0.1-0.2,0.1-0.3,0.1
		C8,22.7,8,22.5,8,22.3c0-0.5-0.1-0.9-0.4-1.3c0,0.7,0,1.4,0,2c0,0.2,0,0.5-0.1,0.7c-0.2,0.1-0.3,0.6-0.2,0.8c0.1,0.1,0.2,0,0.3,0.1
		c0.1,0.1,0.1,0.2,0.1,0.3c0,0.6,0,1.2,0,1.9c0,0.1,0,0.3-0.1,0.4c-0.2,0-0.2,0.1-0.2,0.2c0,0.2,0,0.4-0.1,0.6
		c-0.1,0.2-0.2,0.4,0.2,0.4c0.1,0,0.2,0.1,0.2,0.1c0.1,0.4,0,0.8,0,1.3c-0.1,0-0.3,0-0.1,0.2c0.1,0.1,0.2,0.3,0.2,0.4
		c-0.1,0.1-0.1,0.2-0.1,0.3C7.2,30.4,7,29.9,7,29.4c0-1.6,0-3.1-0.1-4.7c0-0.2,0-0.3,0-0.5c0-1,0-1.9,0-2.9c0-0.3,0-0.5,0-0.8
		c0-0.1,0-0.3-0.1-0.3c-0.4-0.3-0.8-0.4-1.2-0.6c-0.9-0.4-1.2-1.1-1.1-1.9c0.2-0.8,1.1-1.4,1.9-1.1c0.4,0.1,0.4,0.1,0.4-0.3
		c0-0.1,0-0.1,0-0.2c0.1-0.2,0.3-0.4,0.6-0.3c0,0,0.1,0,0.1,0.1c0,0.2,0,0.5,0,0.7c0.3-0.3,0.3-0.6,0.3-1c0,0,0-0.1,0.1-0.1
		c0.3-0.1,0.4,0.1,0.4,0.3c0,0.2-0.1,0.3-0.1,0.5c0.1,0,0.1-0.1,0.2,0c0.1,0.4-0.2,0.7-0.5,0.9c-0.3,0.2-0.6,0.3-0.9,0.3
		c-0.4,0-0.7-0.2-1-0.3c-0.2-0.1-0.4,0-0.6,0.1c-0.5,0.5-0.4,1.3,0.4,1.6c0.6,0.3,1.1,0.6,1.7,0.9C7.7,20,7.9,20.2,8,20.4
		c0.1,0.1,0.1,0.2,0.2,0.2c0.2,0.3,0.3,0.6,0.5,1c0.1,0.5,0.1,1.1,0.1,1.7c0,1.2,0.1,2.3,0.1,3.5c0,0.3,0.1,0.4,0.4,0.4
		c2.3-0.1,4.5-0.5,6.6-1.3c0.7-0.3,1.4-0.6,2-1c0.1-0.1,0.2-0.2,0.4-0.1c0,0,0.1,0,0.1,0.1c0,0.3-0.3,0.4-0.4,0.5
		c0.1,0,0.3-0.2,0.5,0c-0.4,0.3-0.9,0.5-1.4,0.8c-0.2-0.3-0.5-0.2-0.7-0.1c-0.4,0.3-0.9,0.3-1.2,0.7c0.1,0,0.2,0,0.2,0.1
		c-0.4,0.2-0.9,0.3-1.3,0.4c-0.1,0-0.1-0.1,0-0.1c0.1-0.1,0.2-0.1,0.3-0.2c-0.4,0.1-0.8,0-1.2,0.2C13,27,12.8,27.1,12.8,27.4z"/>
	<path class="st3" d="M20.2,25.1c0.1-0.1,0.3-0.1,0.4-0.1c0.1,0,0.1,0.1,0.1,0.2c0.1-0.2,0.2-0.3,0.4-0.2c0.2,0.1,0.1,0.2,0.1,0.3
		c0,0.1,0,0.2,0.1,0.3c0.1-0.4,0.4-0.2,0.6-0.2c0.3-0.1,0.4,0.3,0.7,0.4c0-0.2,0-0.3-0.2-0.4c-0.3-0.1-0.3-0.2-0.2-0.5
		c0.1-0.2,0.2-0.4,0.5-0.4c0.1,0,0.1-0.2,0.1-0.3c0-0.1-0.2-0.2,0-0.3c0.2,0,0.1,0.3,0.3,0.3c0.2-0.1,0.2-0.3,0.2-0.5
		c0-0.2,0.1-0.4,0.3-0.4c0.2,0,0.5-0.2,0.7,0.1c0,0,0.1,0.1,0.1,0.1c0.1,0.1,0.5,0.1,0.3,0.4c-0.1,0.2,0,0.4-0.2,0.5
		c-0.1,0.1-0.1,0.2-0.1,0.3c0,0.1,0,0.2-0.1,0.3c-0.5,0.5-1,0.9-1.5,1.4c-0.1,0-0.1,0.1-0.2,0.1c-0.7,0.5-1.4,1-2.1,1.5
		c-0.2,0.1-0.4,0.2-0.6,0.3c-0.2-0.3-0.1-0.6,0.2-0.9c-0.4,0.1-0.3-0.3-0.6-0.4c0,0,0-0.1,0.1-0.2c0.1,0,0.2,0,0.3-0.1
		c0.1,0,0.3,0.1,0.3-0.1c0-0.1-0.1-0.3-0.3-0.4c-0.2,0-0.2-0.1-0.1-0.3c0.1,0,0.2,0,0.2-0.1C19.8,25.3,20.1,25.2,20.2,25.1z"/>
	<path class="st6" d="M8.4,27.6c0.2,0.2,0.5,0.2,0.7,0.5c0,0,0,0,0,0c0.7,0.2,1.3,1.4,0.9,2.3c0,0-0.1,0.1-0.1,0.1
		c-0.2,0.3-0.4,0.5-0.7,0.6c-0.6,0.1-1.5-0.6-1.6-1.2c-0.1-0.4,0-0.8-0.1-1.3c-0.1-0.3-0.1-0.7-0.1-1c0-0.1,0-0.3,0-0.4
		c0.1-0.5,0-1.1,0-1.6c0-0.2-0.1-0.5,0-0.7c0.1,0,0.1-0.1,0.1-0.2c0.1-0.3,0.2-0.4,0.5-0.2c0.1,0.3,0,0.6,0.1,0.9l0,0
		c0,0.4,0,0.8,0,1.2C8.4,26.9,8.4,27.2,8.4,27.6z"/>
	<path class="st7" d="M9.9,30.4c0.4-0.9,0.1-1.7-0.8-2.3c0.1-0.2,0-0.4,0.3-0.5c0.3-0.1,0.4-0.1,0.5,0.2c0,0.1,0.1,0.2,0.2,0.3
		c0.6,0.8,0.8,1.6,0.4,2.6c0,0.1-0.2,0.2-0.1,0.3c0.1,0.1,0.2,0,0.3,0c0.1,0,0.2,0,0.4,0c0,0.3-0.1,0.4-0.4,0.4
		c-0.5,0-0.7-0.2-0.7-0.7C10,30.5,10,30.4,9.9,30.4z"/>
	<path class="st0" d="M22.6,26.3c0.6-0.6,1.2-1,1.7-1.6c0,0,0.1-0.1,0.1-0.1c0.6-0.5,1-1,1.5-1.6c0.3-0.4,0.6-0.8,1-1.2
		c0.2-0.2,0.3-0.4,0.4-0.7c0.2,0,0.3,0.1,0.3,0.3c-0.1,0.3-0.2,0.5-0.4,0.7c-0.4,0.3-0.8,0.6-1,1.1c0,0.1-0.1,0.2-0.2,0.2
		c-0.7,0.5-1.2,1.3-1.8,1.9c-0.4,0.3-0.8,0.6-1.2,1C22.7,26.6,22.6,26.5,22.6,26.3z"/>
	<path class="st0" d="M24.7,19.4c-0.7,1-1.5,2-2.4,2.9c-0.1,0.1-0.1,0.1-0.2,0.2c-0.2,0.3-0.5,0.6-0.9,0.8c0,0-0.1,0-0.1,0
		c-0.1,0-0.1-0.1-0.1-0.1c0.2-0.2,0-0.3,0-0.4c0.1-0.2,0.3-0.4,0.5-0.6c0.9-0.7,1.7-1.6,2.3-2.6c0.1-0.2,0.3-0.5,0.5-0.6
		C24.6,19,24.5,19.3,24.7,19.4z"/>
	<path class="st8" d="M24.4,19c-0.2,0.4-0.5,0.8-0.8,1.1c-0.4,0.6-0.9,1.2-1.5,1.7c-0.3,0.3-0.7,0.5-0.9,0.8
		c-0.1,0.1-0.1,0.1-0.2,0.2c0,0.1-0.1,0.2-0.2,0.2c-0.5,0.3-0.9,0.8-1.4,1.2c-0.3,0.3-0.6,0.6-1.1,0.5c0,0-0.1,0-0.1-0.1
		c0-0.2,0.2-0.2,0.4-0.3c1-0.7,1.9-1.4,2.8-2.2c0.7-0.6,1.3-1.4,1.9-2.1c0.3-0.5,0.7-0.9,1-1.4c0.2-0.2,0.2-0.4-0.1-0.6
		c-0.1-0.1-0.3-0.2-0.2-0.4c0,0,0-0.1,0.1-0.1c0.1,0,0.1,0.1,0.2,0.1c0.1,0,0.1,0.1,0.2,0.1c0,0,0,0,0,0
		C24.9,18.4,24.9,18.5,24.4,19z"/>
	<path class="st7" d="M12.1,30.8c0.5-0.1,1.1-0.2,1.6-0.3c0.8-0.2,1.5-0.4,2.2-0.6c0.1,0.1,0.2,0.1,0.2,0.2c0,0.1-0.1,0.1-0.2,0.2
		c-0.8,0.2-1.5,0.6-2.3,0.6c-0.3,0-0.6,0.1-0.8,0.2c-0.3,0.1-0.6,0-0.9,0.1c-0.1,0-0.1,0-0.1-0.1c0-0.1,0.1-0.1,0.1-0.1
		C12,31,12.1,30.9,12.1,30.8z"/>
	<path class="st0" d="M27.3,20c-0.4-0.9-1.1-1.4-2.1-1.3c-0.1-0.2,0-0.3,0.2-0.3c0.4,0,0.7,0.1,1,0.3c0.2,0.2,0.6,0.3,0.8,0.6
		c0.1,0.1,0.2,0.2,0.3,0.3C27.6,19.8,27.6,20,27.3,20z"/>
	<path class="st7" d="M7.6,29.8c0.3,0.7,0.9,1,1.6,1.2c0.1,0.2,0,0.3-0.2,0.3c-0.3,0-0.6-0.1-0.8-0.4c-0.1-0.2-0.3-0.3-0.5-0.4
		c-0.1-0.3-0.4-0.4-0.3-0.8C7.5,29.7,7.5,29.8,7.6,29.8z"/>
	<path class="st7" d="M17.8,29.2c0.3-0.2,0.6-0.3,0.8-0.4c0.1,0.1,0.1,0.2,0,0.3c-0.2,0.2-0.4,0.3-0.6,0.4
		C17.8,29.5,17.8,29.4,17.8,29.2z"/>
	<path class="st0" d="M24.5,17.8c-0.1,0-0.1-0.1-0.2-0.1c0-0.1,0.1-0.2,0.2-0.1c0.1,0.1,0.2,0.1,0.2,0.3
		C24.6,17.9,24.5,17.8,24.5,17.8z"/>
	<path class="st5" d="M5.4,12.2c0.4,0.2,0.7,0.3,1.1,0.3c0.4,0,0.6,0.3,0.7,0.6c0.1,0.3,0.4,0.4,0.7,0.3c0.2,0.1,0.3,0.3,0.3,0.5
		c0,0.1,0,0.1,0,0.2c-0.2,0.1-0.3,0.2-0.5,0.3c-0.1,0-0.1-0.2-0.2-0.3c0-0.1-0.1-0.2-0.1-0.3c0,0.3,0,0.5,0,0.8c0,0.1,0,0.2-0.1,0.3
		c-0.1,0.1-0.2,0.2-0.3,0.3c-0.1,0.1-0.2,0.2-0.3,0c-0.1-0.2,0-0.4-0.1-0.6c0-0.1,0-0.3,0-0.4c0-0.2,0.1-0.5,0.2-0.7
		c0.1-0.2-0.2-0.3-0.2-0.5c-0.3-0.3-0.6-0.4-0.9-0.6C5.7,12.4,5.5,12.3,5.4,12.2z"/>
	<path class="st1" d="M6.8,15.2C7,15.3,7,15.2,7.1,15.1c0.1-0.1,0.1-0.2,0.3-0.2c0.2,0.2,0.2,0.6,0,0.9c-0.2,0-0.4,0.2-0.6,0.3
		C6.8,15.8,6.8,15.5,6.8,15.2z"/>
	<path class="st1" d="M6.8,13c0.5,0.3,0.5,0.4,0.2,0.8c-0.1,0.1,0,0.3-0.1,0.4C6.8,13.9,6.8,13.5,6.8,13z"/>
	<path class="st9" d="M8.3,14c-0.1-0.2-0.2-0.3-0.3-0.5c-0.3-0.6-0.8-1-1.4-1.3c-0.4-0.2-0.8-0.4-1.2-0.6C5.2,11.4,5,11.3,4.8,11
		c-0.2-0.3-0.2-0.7,0-1c0.2-0.3,0.7-0.4,1-0.3c0.3,0.1,0.7,0.3,1,0.4c0.8,0.1,1.4-0.3,1.6-1c0.1-0.7,0.1-1.5,0.1-2.2
		c0-1.8,0-3.6,0-5.4c0-0.1,0-0.1,0-0.3c0.4,0.4,0.7,0.7,1,1c1.6,1.7,3.1,3.4,4.7,5.1c0,0,0.1,0,0.1,0.1c0.8,0.8,1.5,1.6,2.3,2.5
		c1.2,1.3,2.4,2.5,3.5,3.8c1.3,1.3,2.5,2.7,3.8,4c0,0,0.1,0.1,0.1,0.1c0.1,0.1,0.2,0.2,0.2,0.3c-0.2,0.2-0.4-0.1-0.6-0.1
		c-0.2-0.2-0.6-0.2-0.7-0.6c0-0.1-0.1-0.1-0.2-0.1c-0.3-0.1-0.4-0.2-0.6-0.5c-0.2-0.5-0.5-0.6-1-0.5c-0.1,0-0.2,0.1-0.2,0
		c0-0.1,0-0.2,0.1-0.2c0,0,0.1-0.1,0.1-0.1c0.3-0.3,0.3-0.5,0-0.8c-0.2-0.2-0.4-0.4-0.6-0.6c-0.1-0.1-0.2-0.2-0.3,0.1
		c-0.1,0.2-0.2,0.1-0.3,0.1c-0.3-0.2-0.5-0.4-0.8-0.6C19.1,14,19,14,18.8,14c-0.2,0-0.5,0-0.7,0.1c-0.2,0-0.4-0.1-0.3-0.3
		c0-0.1,0.1-0.2,0.1-0.2c0.4-0.3,0.3-0.7,0.2-1.1c-0.1-0.3-0.3-0.3-0.5-0.2c-0.7,0.4-0.8,0.6-0.4,1.4c0,0.1,0.1,0.1,0.1,0.2
		c-0.3,0.7-0.5,1.4-0.8,2.1c-0.1,0.2,0,0.3,0.1,0.5c0,0.1,0.1,0.2,0.1,0.3c0.1,0.1,0.1,0.2,0,0.3c-0.1,0.1-0.2,0-0.3,0
		c-0.1,0-0.1,0-0.2,0c-0.1,0-0.3,0-0.4-0.1c-0.1-0.1-0.1-0.2-0.3-0.2c-0.1,0-0.2-0.1-0.2-0.2c0-0.1,0.1-0.2,0.2-0.2
		c0.1,0,0.2,0,0.4,0c-0.3-0.3-0.5-0.6-0.3-1c0-0.1,0-0.2-0.1-0.3c-0.1-0.1-0.1-0.3,0-0.4c0.1-0.1,0.3-0.1,0.4-0.1c0.1,0,0.1,0,0.2,0
		c0.1,0,0.2,0.1,0.3,0c0.1-0.1,0.1-0.2,0-0.3c-0.1-0.2-0.2-0.4-0.2-0.6c0-0.1-0.1-0.2-0.2-0.1c-0.4,0.4-0.9,0.4-1.3,0.4
		c-0.3,0-0.6,0.1-0.8,0.3c-0.2,0.2-0.3,0.3-0.5,0.4c-0.1,0.1-0.1,0.1-0.2,0.1c-0.1,0-0.1-0.1-0.1-0.2c0-0.2,0-0.4,0-0.6
		c0-0.1,0-0.2,0.1-0.2c0.3-0.2,0.6-0.6,1.1-0.4c0.7,0.2,1.2-0.2,1.7-0.5c0.2-0.2,0.4-0.5,0.4-0.8c0,0,0-0.1,0-0.1
		c0-0.2,0.1-0.3,0.2-0.4c0.1-0.1,0.1-0.3,0-0.5c-0.1-0.1-0.1-0.1-0.2-0.1c-0.3-0.2-0.5-0.3-0.5-0.8c-0.1-0.5-0.4-1.1-1-1.3
		c-0.1-0.2-0.3-0.2-0.5-0.3c-0.1,0-0.2,0-0.2,0.1c0,0.1,0.1,0.1,0.2,0.2c0.1,0,0.1,0,0.2-0.1c0.1,0,0.2-0.1,0.3,0.1
		C15,8.9,14.9,9,14.8,9c-0.4,0.1-0.7,0.4-0.9,0.8c0,0.1-0.1,0.2-0.2,0.2c-0.1,0-0.1-0.1-0.2-0.2c-0.1-0.3-0.1-0.5,0.1-0.8
		c0.4-0.6,0.4-1.3,0-1.9c-0.1-0.1-0.1-0.2-0.2-0.2c-0.1-0.5-0.5-0.6-0.9-0.9C12.6,6,12.5,6,12.4,6c-0.8,0.1-1.5,0.2-2,0.9
		c-0.2,0.4-0.3,0.8-0.3,1.2c0.1,0.5,0,0.6-0.5,0.5c-0.2-0.1-0.4,0-0.4,0.2c-0.1,0.6,0.2,1.1,0.8,1.2c0.2,0,0.3,0.1,0.3,0.4
		c0,0.2,0,0.3,0,0.5c0,0.2,0,0.4,0.1,0.6c0.1,0.1,0.1,0.2,0.1,0.2c0.2,0.5,0.1,0.8-0.5,0.8c-0.4,0.2-0.6,0.6-0.8,1
		C9.1,14,8.5,14.1,8.3,14z"/>
	<path class="st10" d="M7.4,1.5C7.5,1.5,7.5,1.5,7.4,1.5c0.1-0.2,0.3-0.5,0.5-0.5C8.1,1.1,8,1.4,8,1.6c0,2.1,0,4.2,0,6.3
		C8,8.3,8,8.6,7.9,9c0,0.1,0,0.1-0.1,0.2C7.7,9.3,7.6,9.5,7.5,9.4c-0.1,0-0.1-0.2-0.1-0.3c0-2.2,0-4.4-0.1-6.5c0-0.3,0-0.5,0-0.8
		C7.4,1.7,7.4,1.6,7.4,1.5z"/>
	<path class="st7" d="M18.4,24.7c0.5-0.1,0.9-0.3,1.2-0.7c0.4-0.5,0.9-0.9,1.5-1.2c0.1,0,0.2,0,0.2,0.1c0,0.1,0,0.2-0.1,0.2
		c-0.1,0-0.1,0.1-0.1,0.2c-0.1,0.1-0.1,0.1-0.2,0.2c0,0.1-0.1,0.1-0.1,0.1c-0.1,0-0.1,0-0.1,0.1c0,0.1-0.1,0.2-0.2,0.2
		c-0.2,0.1-0.4,0.3-0.5,0.4c-0.4,0.2-0.7,0.5-1.1,0.7c-0.1,0.1-0.2,0.1-0.3,0.1c-0.3-0.1-0.5,0.2-0.7,0.2
		C17.8,25.1,18.3,25,18.4,24.7z"/>
	<path class="st7" d="M15.4,26.7c-0.1-0.1-0.3,0.1-0.5,0c0.3-0.2,0.5-0.4,0.8-0.5c0.3-0.1,0.5-0.2,0.7-0.4c0.2-0.1,0.3-0.1,0.5-0.1
		c0.2,0,0.1,0.2,0.2,0.3C16.6,26.3,16,26.5,15.4,26.7z"/>
	<path class="st7" d="M12.8,27.4c-0.2-0.2-0.1-0.3,0.1-0.4c0.3-0.1,0.6-0.3,0.9-0.2c0.2,0,0.4-0.1,0.7-0.1c0,0.3-0.4,0.2-0.4,0.4
		C13.7,27.2,13.3,27.4,12.8,27.4z"/>
	<path class="st7" d="M10.9,27.7c-0.1-0.3,0-0.5,0.4-0.6c0.3-0.1,0.5,0.1,0.6,0.4C11.5,27.6,11.2,27.7,10.9,27.7z"/>
	<path class="st3" d="M19.7,28c-0.2,0-0.3,0-0.4-0.2c0,0,0-0.1,0.1-0.1C19.5,27.7,19.6,27.8,19.7,28z"/>
	<path class="st3" d="M22.8,23.8c-0.1,0.1,0,0.2,0.1,0.3c0.1,0.1,0.1,0.2,0,0.4c-0.1,0.1-0.2,0.2-0.3,0.1c-0.1,0-0.1,0-0.1,0
		c0.2,0.3,0,0.3-0.2,0.4c-0.1,0.1,0,0.3,0.2,0.3c0.1,0,0.2-0.1,0.3,0.1c0,0.2,0.2,0.4,0,0.4c-0.1,0.1-0.3-0.1-0.4-0.2
		c-0.1-0.2-0.2-0.2-0.3-0.2c-0.1,0-0.2,0.1-0.3,0c-0.1-0.1-0.2,0-0.2,0.1c0,0.1,0,0.2-0.1,0.2c-0.1,0-0.1-0.1-0.2-0.2
		c-0.1-0.1-0.1-0.2,0-0.3c0-0.1,0-0.2-0.1-0.2c-0.1,0-0.2,0-0.2,0.1c0,0.1,0.1,0.2-0.1,0.2c-0.2-0.1,0-0.2,0-0.3c0,0,0,0,0-0.1
		c0.1-0.1,0.2-0.2,0.3-0.2c0.3,0,0.4,0,0.2-0.3c0.1-0.3,0.4-0.5,0.5-0.9c0,0,0-0.1,0.1-0.1c0.1-0.1,0.7,0,0.8,0.1
		C22.6,23.7,22.7,23.8,22.8,23.8z"/>
	<path class="st3" d="M21.2,23.3c0.3-0.3,0.6-0.6,0.9-0.8c0.1,0.1,0.1,0.2-0.1,0.3c-0.2,0.1-0.3,0.3-0.5,0.5
		C21.5,23.5,21.3,23.5,21.2,23.3z"/>
	<path class="st3" d="M20.4,23.9c0.1-0.1,0.2-0.1,0.2-0.2c0.1,0,0.1,0.1,0.1,0.2c0,0.2-0.1,0.3-0.3,0.3C20.3,24.2,20.4,24,20.4,23.9
		z"/>
	<path class="st3" d="M21.2,24.5c0.1,0.1,0.3,0.1,0.2,0.3c-0.1,0.1-0.3,0.3-0.4,0C21,24.7,21.1,24.6,21.2,24.5z"/>
	<path class="st3" d="M20.2,25.1c-0.1,0.2-0.5,0.2-0.1,0.5c-0.1,0.1-0.2,0.1-0.3,0C19.7,25.4,19.9,25.1,20.2,25.1z"/>
	<path class="st3" d="M20.8,23.6c0,0,0.1-0.1,0.1-0.1c0.1,0,0.2,0.1,0.1,0.1C21,23.7,20.8,23.8,20.8,23.6z"/>
	<path class="st11" d="M21.4,22.1c-0.2,0.3-0.4,0.5-0.7,0.7c-0.8,0.7-1.6,1.3-2.5,1.8c-1.1,0.6-2.2,1.2-3.4,1.6
		c-1.6,0.5-3.2,0.8-4.8,0.9c-0.3,0-0.5,0-0.8,0.1c-0.3,0-0.4-0.1-0.4-0.3c0-1.2-0.1-2.4-0.1-3.7c0-0.5-0.1-1.1-0.1-1.6
		c0-0.1,0-0.3,0-0.4c0-0.2,0.1-0.3,0.3-0.4c0.3-0.1,0.6-0.4,1-0.5c0.2-0.1,0.4-0.1,0.6,0c0.2,0.2,0.3,0.4,0.5,0.6
		c0.3,0.3,0.5,0.5,0.9,0.5c0.2,0,0.3,0,0.3-0.3c0-0.2,0-0.5,0.1-0.7c0.3-0.1,0.5-0.3,0.7-0.4c0.3-0.2,0.7-0.4,1.1-0.5
		c0.1-0.1,0.2-0.2,0.2-0.3c0.1-0.3,0.2-0.6,0.5-0.6c0.3,0,0.6-0.2,0.9,0c0.2,0.6,0,1.3-0.2,1.9c-0.2,0.2-0.3,0.5-0.1,0.8
		c0.3,0.8-0.1,1.4-0.9,1.4c-0.4,0-0.4,0.1-0.4,0.5c0.1,0.6-0.1,0.9-0.6,1.1c-0.7,0.3-1.2,0-1.3-0.8c-0.1-0.4-0.1-0.4-0.5-0.4
		c-0.8,0.1-1.3-0.4-1.1-1.2c0.1-0.2,0.1-0.4-0.1-0.5c-0.4-0.4-0.7-0.4-0.9,0.2c-0.3,1,0.2,2.3,1.4,2.6c0.2,0,0.3,0.1,0.4,0.3
		c0.5,0.8,1.1,1.1,2,0.9c0.9-0.1,1.5-0.6,1.7-1.5c0.1-0.2,0.1-0.3,0.3-0.4c0.9-0.5,1.2-1.3,1-2.3c0-0.1,0-0.1,0-0.2
		c-0.1-0.5,0.1-0.9,0.2-1.4c0.2,0,0.3,0,0.5,0.1c0.1,0.1,0.1,0.3,0,0.4c-0.1,0.2,0,0.4,0.1,0.5c0.4,0.5,1,0.8,1.6,0.8
		c0.5,0,0.8-0.2,1.3-0.3c0.2,0,0.3-0.1,0.3-0.3c0.1-0.1,0.1-0.2,0.3-0.2c0.2,0.2,0.2,0.5,0.2,0.8C21.1,22,21.1,22,21.4,22.1z"/>
	<path class="st12" d="M15,18.7c-0.4,0.1-0.4,0.4-0.5,0.7c-0.1-0.1-0.1-0.3-0.1-0.4c0-0.2,0-0.4,0.1-0.6c0-0.2,0-0.4-0.2-0.4
		c-0.2,0-0.5-0.2-0.6,0.1c-0.1,0.1-0.1,0.2-0.1,0.4c0,0.1,0,0.1-0.1,0.2c-0.2,0.7-0.1,0.8,0.6,0.9c0.1,0,0.2,0,0.3,0.1
		c0,0,0,0.1,0,0.1c-0.6,0-1,0.4-1.5,0.7c-0.1,0.1-0.2,0.1-0.3,0.1c-0.1-0.2,0-0.5,0-0.7c0.1-0.2,0.3-0.3,0.4-0.5
		c0.1-0.3,0.2-0.5,0-0.7c-0.2-0.2-0.3-0.2-0.4,0c-0.1,0.2-0.1,0.3-0.2,0.5c0,0.2-0.1,0.4-0.4,0.4c-0.1,0-0.2,0-0.2,0
		c-0.1,0-0.2-0.1-0.3-0.2c-0.1-0.6-0.3-0.7-0.7-0.8c-0.3,0-0.3,0.3-0.5,0.3c-0.1,0-0.2-0.1-0.2-0.2c-0.1-0.1-0.2-0.1-0.3,0
		c-0.2,0.2-0.3,0.5-0.3,0.7c0,0.1,0.1,0.3,0.1,0.4c0,0-0.1,0.1-0.1,0c-0.4-0.2-0.6,0-0.9,0.2C8.1,19.9,8,20,7.9,20
		c-0.1,0-0.2-0.1-0.3-0.1c-0.3-0.1-0.4-0.2-0.4-0.5C7.3,19.2,7.5,19,7.8,19c0.6,0.1,0.9-0.4,1.2-0.7c0,0,0.1-0.1,0.1-0.1
		C9.2,18,9.6,18,9.5,17.7c-0.1-0.2-0.1-0.5-0.2-0.7c0-0.1,0-0.1,0-0.2c0-0.2-0.2-0.4,0-0.6c-0.2,0.2-0.2,0.5-0.3,0.8
		c-0.5,0.6-1.1,1-1.5,1.7c0,0.1-0.1,0.1-0.2,0.1c-0.3-0.1-0.4,0-0.6,0.2c-0.2,0.2-0.7,0.2-1,0c-0.1-0.1-0.1-0.3-0.1-0.5
		c0-0.1,0.1-0.2,0.1-0.3c-0.6,0-0.7-0.1-0.4-0.7c0-0.1,0.1-0.2,0.2-0.3c0.2-0.1,0.4-0.2,0.6-0.1c0.2,0,0.2,0.1,0.2,0.2
		c0,0.1,0,0.2,0,0.4c0,0.1,0.1,0.3,0.2,0.3c0.2,0,0.3-0.1,0.3-0.2c0-0.2,0.1-0.3,0.2-0.4c0.3-0.1,0.6-0.1,0.8-0.3
		c0.4-0.1,0.6-0.4,0.8-0.7C8.9,16,9.2,15.6,9,15c-0.1-0.3,0.3-0.8,0.6-0.8c0.1,0.1,0.1,0.3,0.2,0.4c0,0.1,0,0.2-0.1,0.3
		c0,0.1-0.1,0.1-0.1,0.2c0.1,0,0.1-0.1,0.2-0.1c0.3-0.2,0.5-0.4,0.7-0.6c0.1,0,0.1,0,0.2-0.1c0.1-0.3,0.3-0.2,0.4,0
		c0,0,0.1,0.1,0.1,0.1c0.1,0,0-0.1,0-0.2c-0.1-0.2-0.1-0.4,0-0.7c0.1-0.3-0.1-0.4-0.5-0.4c-0.2-0.2-0.5-0.3-0.6-0.5
		c0.2,0,0.4,0.1,0.5-0.1c0.1-0.2,0.1-0.4,0-0.5c-0.3-0.4-0.3-0.9-0.3-1.4c0-0.2,0-0.4-0.2-0.3c-0.1-0.2,0-0.4,0.1-0.5
		c0.1-0.3,0-0.6-0.3-0.8C9.8,8.8,9.6,8.8,9.7,8.6c0.1,0,0.2,0,0.3,0c0.2,0,0.3-0.1,0.2-0.2C9.7,7.3,10.8,6,11.9,6
		c0.1,0,0.3,0,0.4-0.1c0.2-0.1,0.4,0.1,0.5,0.2c0.7,0.3,0.8,1,1.2,1.5c0,0.5,0.2,1.1-0.3,1.5c-0.3,0.3-0.2,0.6,0,0.9
		c0-0.5,0.5-0.6,0.7-1c0,0,0.1,0,0.1,0c0.2,0,0.3-0.1,0.4-0.3l0,0c0.3,0,0.5,0.1,0.7,0.4c0.1,0.2,0.3,0.4,0.4,0.7
		c0,0.1,0.1,0.2,0.1,0.3c-0.1,0.3,0.1,0.4,0.3,0.5c0.1,0.1,0.2,0.1,0.2,0.1c-0.1,0.1-0.3,0.1-0.4,0c-0.4-0.1-0.5,0-0.6,0.4
		c-0.3,0.8-1.1,1-1.6,0.5c-0.2-0.2-0.4-0.2-0.5,0c-0.2,0.3-0.5,0.6-1,0.5c-0.5-0.1-0.6-0.6-0.7-1c0-0.1,0-0.3,0-0.4
		c0-0.4-0.2-0.7-0.7-0.7c-0.3,0-0.3,0.2-0.4,0.4c-0.1,0.9,0,1.7,0.7,2.3c0.6,0.5,1.2,0.7,2,0.4c0.3-0.2,0.6-0.2,1-0.1
		c0.7,0.1,1.3-0.1,1.8-0.7c0.1-0.1,0.2-0.3,0.4-0.4c0.1,0.1,0.1,0.1,0.1,0.2c-0.2,0.4-0.3,0.9-0.9,0.9c0,0-0.1,0-0.1,0.1
		c-0.4,0.4-0.9,0.3-1.4,0.2c-0.1,0-0.2,0-0.2,0c-0.1,0.1-0.3,0.3-0.5,0.4c-0.1,0-0.1,0.1-0.1,0.2c0,0.2,0,0.5-0.1,0.8
		c0.2-0.2,0.4-0.3,0.5-0.5c0.1-0.2,0.3-0.3,0.5-0.4c0,0,0.1-0.1,0.1-0.1c0.4,0.2,0.8-0.1,1.2-0.1c0.2,0,0.3,0,0.3-0.2
		c0-0.1,0.2-0.2,0.3-0.2c0.1,0,0,0.2,0,0.3c0,0.2,0,0.4,0.2,0.5c0.1,0.1,0.1,0.3,0,0.5c-0.1,0.1-0.2,0.1-0.4,0c0,0-0.1,0-0.1-0.1
		c-0.1,0-0.3-0.1-0.4,0c-0.1,0.1,0,0.3,0.1,0.4c0.1,0.1,0.1,0.2,0.1,0.4c-0.2,0.5,0.1,0.7,0.4,1c0,0,0,0.1,0,0.1
		c-0.2,0-0.3-0.1-0.5-0.1c-0.1,0-0.2,0-0.3,0.2c0,0.2,0.1,0.1,0.2,0.1c0.1,0,0.2,0.1,0.2,0.2c0,0-0.1,0.1-0.1,0.1
		c-0.3-0.1-0.4,0.1-0.5,0.4C15.1,17.7,15,18.2,15,18.7z"/>
	<path class="st11" d="M5.5,17.2c0,0.2-0.1,0.4-0.2,0.6c0,0.1-0.1,0.2,0,0.3c0.1,0.1,0.2,0.1,0.3,0c0.1,0,0.2-0.2,0.3,0
		c0.1,0.1,0,0.2-0.1,0.3c0,0.1-0.1,0.1-0.1,0.2c-0.1,0.2-0.1,0.3,0.2,0.4c0.5,0.1,0.6,0.1,0.9-0.3c0.1-0.2,0.2-0.1,0.4-0.1
		c0.2,0.1,0.2,0,0.3-0.1c0.2-0.3,0.4-0.7,0.8-0.9c0,0,0.1-0.1,0.1-0.1C8.4,17,8.8,17,9,16.8c0.1-0.1,0.2-0.2,0.3-0.1
		c0.2,0.3,0.1,0.7,0.4,1c0.1,0.1,0,0.2-0.1,0.2c-0.3,0.1-0.4,0.4-0.6,0.5c-0.4,0.3-0.6,0.8-1.2,0.6c-0.2,0-0.4,0.1-0.4,0.4
		c0,0.2,0,0.4,0.3,0.4c0.1,0,0.2,0.1,0.3,0.1c0.1,0.1,0.2,0.3,0.2,0.5c0,0,0,0,0,0c0,0,0,0,0,0c-0.6-0.6-1.3-1-2.1-1.3
		c-0.3-0.1-0.6-0.3-0.7-0.6C4.9,18.2,4.9,17.6,5.5,17.2z"/>
	<path class="st11" d="M9.7,14.3c-0.2-0.1-0.3,0-0.3,0.1c-0.1,0.3-0.5,0.5-0.2,0.8c0.1,0.1,0,0.3-0.1,0.4c-0.2,0.4-0.4,0.8-0.6,1.1
		c-0.1,0.2-0.4,0.4-0.6,0.3c0.3-0.3,0.5-0.5,0.5-0.9c-0.1-0.2,0-0.5,0-0.7c0-0.5-0.1-0.9-0.1-1.4c0,0,0-0.1,0-0.1
		c0.4,0,0.7-0.1,1-0.3c0.3,0.1,0.5,0.3,0.6,0.5c0.2,0.2,0.3,0.3,0.5,0c0.1-0.1,0.1-0.2,0.3-0.1c0,0.1,0.1,0.3-0.1,0.4
		c-0.1,0.3-0.4,0.5-0.7,0.7c-0.1,0-0.2,0-0.2-0.1c0-0.1,0.1-0.2,0.1-0.3C9.8,14.6,9.8,14.4,9.7,14.3z"/>
	<path class="st11" d="M8,20.4c0-0.2-0.1-0.3-0.1-0.5c0.2-0.1,0.3-0.2,0.5-0.3c0.3-0.2,0.5-0.3,0.8-0.1c0.2,0,0.2,0.1,0.3,0.2
		c0.1,0.1,0.1,0.1,0.3,0.1c0.3-0.2,0.4-0.7,0.3-1c0-0.1-0.1-0.2,0-0.2c0.3-0.4,0.6-0.5,1-0.3c0.3,0.2,0.3,0.4,0.3,0.7
		c-0.1,0.1-0.2,0.1-0.4,0c-0.2-0.2-0.2,0-0.3,0.1c0,0.4-0.3,0.7-0.6,1c-0.2,0.2-0.4,0.2-0.7,0.1c-0.1-0.1-0.2-0.1-0.3,0
		c-0.2,0.4-0.5,0.3-0.9,0.2C8.1,20.6,8.1,20.5,8,20.4z"/>
	<path class="st13" d="M8.1,24.5c-0.3-0.1-0.4,0-0.5,0.3c0,0.1-0.1,0.1-0.1,0c0-0.1,0-0.2,0-0.2c-0.1-0.3-0.1-0.6,0-0.9
		c0.1-0.6,0-1.3,0-1.9c0-0.3,0-0.7,0-1.1C7.8,21.2,8,21.5,8.1,22c0,0.3,0.1,0.6,0.1,0.8c0.1,0.3,0.1,0.6,0,0.9
		C8.2,24,8.2,24.2,8.1,24.5z"/>
	<path class="st11" d="M8.2,20.6c0.1,0,0.3-0.1,0.4,0c0.2,0,0.3-0.1,0.4-0.2c0.1-0.2,0.2-0.3,0.4-0.1c0.3,0.2,0.5,0.2,0.8-0.1
		c0.3-0.3,0.5-0.7,0.5-1.1c0-0.1,0-0.1,0.1-0.2c0.1,0,0.1,0,0.2,0.1c0.1,0.2,0.3,0.2,0.4,0.2c0.1,0.1,0.2,0.2,0.3,0.2
		c0,0.2-0.2,0.3-0.4,0.4c-0.2,0.2-0.4,0.3-0.6,0.6c-0.4,0-0.8,0.2-1.1,0.3c-0.2,0.1-0.3,0.2-0.5,0.2c-0.1,0-0.1,0.2-0.2,0.3
		c0,0.1,0,0.3-0.1,0.4C8.5,21.3,8.3,21,8.2,20.6z"/>
	<path class="st1" d="M8.3,14.1c0.3,0.7,0.3,1.4,0.1,2.1c0,0.1-0.1,0.1-0.1,0.2c0,0-0.1,0.1-0.1,0.1c-0.1,0-0.1-0.1-0.1-0.1
		c0-0.2,0-0.3,0.1-0.4c0-0.2,0.1-0.4-0.2-0.4c-0.2-0.3-0.2-0.7-0.1-1.1C7.9,14.2,8.1,14.1,8.3,14.1z"/>
	<path class="st14" d="M7.8,14.4c0,0.4,0.1,0.7,0.1,1.1c0,0,0,0.1,0,0.1c-0.2,0.1-0.3,0.2-0.5,0.2c0,0,0,0-0.1,0c0-0.3,0-0.6,0-0.9
		c0-0.4,0-0.8,0-1.3C7.6,13.8,7.7,14.2,7.8,14.4z"/>
	<path class="st11" d="M7.1,17.4c0,0.2-0.1,0.3-0.2,0.5c0,0.2-0.3,0.3-0.4,0.3c-0.2,0-0.3-0.2-0.3-0.5c0-0.2,0.1-0.4-0.1-0.6
		C6.4,17.2,6.8,17.4,7.1,17.4z"/>
	<path class="st7" d="M8.4,27.6c-0.1-0.3-0.1-0.7-0.1-1c0.1-0.1,0.2-0.3,0.3-0.2c0.1,0.1,0.1,0.2,0.1,0.4c0,0.1,0,0.3,0,0.4
		C8.8,27.6,8.8,27.6,8.4,27.6z"/>
	<path class="st7" d="M8.2,23.8c0-0.3-0.1-0.6,0-0.9c0,0,0,0,0,0c0.1-0.1,0.2-0.3,0.3-0.2c0.1,0.1,0.1,0.3,0.1,0.4
		c0,0.1,0,0.2,0,0.3C8.6,23.6,8.5,23.8,8.2,23.8z"/>
	<path class="st15" d="M7.4,15.8c0.2-0.1,0.2-0.3,0.5-0.2c0,0.4,0,0.7-0.3,1c0,0-0.1,0.1-0.1,0.1c-0.1,0-0.1-0.1-0.1-0.2
		C7.4,16.3,7.3,16.1,7.4,15.8z"/>
	<path class="st7" d="M7.5,23.7c0.1,0.3,0.1,0.6,0,0.9c-0.1,0-0.2,0.1-0.3,0.1c-0.1-0.3-0.1-0.6,0-0.8C7.2,23.8,7.2,23.5,7.5,23.7z"
		/>
	<path class="st0" d="M7.5,27.5c0,0.3,0,0.7,0,1c-0.1,0-0.1-0.1-0.2-0.1c-0.1,0.1-0.2,0-0.3-0.1C7,28.2,7,28.1,7.2,28
		c0.1-0.1,0.1-0.2,0.2-0.3C7.4,27.6,7.4,27.5,7.5,27.5z"/>
	<path class="st7" d="M7.5,27.5c-0.1,0-0.1,0.2-0.1,0.2c0,0.1,0,0.3-0.2,0.2c0-0.2,0-0.5,0.1-0.7c0-0.2,0.1-0.3,0.3-0.1
		C7.5,27.3,7.5,27.4,7.5,27.5z"/>
	<path class="st7" d="M8.2,25.4c0.1-0.1,0.1-0.3,0.2-0.4c0,0,0-0.1,0.1-0.1c0.1,0,0.1,0.1,0.1,0.1c0,0.1,0,0.2,0,0.3
		c0,0.1-0.1,0.3-0.2,0.3C8.3,25.7,8.3,25.4,8.2,25.4C8.2,25.4,8.2,25.4,8.2,25.4z"/>
	<path class="st12" d="M21.4,22.1C21.4,22.1,21.4,22.1,21.4,22.1c-0.5,0.1-0.5,0.1-0.5-0.4c0-0.4,0-0.7-0.1-1c0-0.2,0.2-0.2,0.3-0.3
		c0.4-0.1,0.8-0.3,1.1-0.7c0.3-0.4,0.5-0.8,0.5-1.2c0-0.7-0.3-1.4-0.8-1.9c-0.3-0.2-0.4-0.2-0.6,0c-0.3,0.4-0.3,0.5,0,0.9
		c0.2,0.3,0.3,0.6,0.3,0.9c0,0.5-0.4,0.8-0.9,0.8c-0.1,0-0.2,0-0.3,0c-0.4-0.1-0.4-0.1-0.5,0.3c-0.2,0.8-0.9,1.1-1.5,0.6
		c-0.4-0.3-0.8-0.7-0.9-1.3c0-0.1,0-0.1-0.1-0.2c-0.2-0.1-0.9,0.1-1,0.3c-0.1,0.1,0,0.2,0.1,0.3c0.1,0.1,0.3,0.2,0.2,0.4
		c0.1,0.1,0.2,0.2,0.1,0.3c-0.2,0.3-0.3,0.6-0.1,1c0,0,0,0-0.1,0.1c-0.2-0.1-0.2-0.3-0.3-0.5c-0.2-0.3-0.3-0.4-0.6-0.2
		c0,0-0.1,0-0.2,0c0-0.2,0.2-0.4,0.2-0.7c0-0.4,0-0.8,0-1.2c0-0.1,0.2-0.2,0.3-0.2c0.3-0.2,0.6-0.4,0.8-0.7c0.2-0.3,0.1-0.3-0.1-0.5
		c-0.1-0.1-0.3-0.1-0.3-0.3c0,0,0.1,0,0.1,0c0.1,0,0.2,0.2,0.3,0.1c0.1-0.1-0.1-0.2-0.1-0.3c0-0.1-0.1-0.2-0.2-0.3
		c-0.1-0.2,0-0.4,0-0.7c0.1-0.5,0.5-0.9,0.5-1.5c0-0.2,0.1-0.3,0.3-0.4c0.2-0.1,0.3-0.2,0.6-0.1c0,0.2,0,0.3,0.3,0.3
		c0.2-0.1,0.5,0,0.7-0.1c0.2,0,0.4,0,0.5,0.2c0.1,0.2,0.4,0.2,0.6,0.4c0.1,0.1,0.3,0.1,0.3,0.3c0-0.1,0.1-0.1,0.1-0.1
		c0-0.1,0-0.2,0.1-0.3c0.1-0.1,0.2,0.1,0.3,0.1c0.3,0.2,0.5,0.5,0.7,0.7c0.1,0.1,0.1,0.4,0.3,0.5c-0.2,0.1-0.2,0.3-0.4,0.4
		c-0.1,0-0.2,0.1-0.2,0.2c0.2-0.2,0.5-0.2,0.7-0.1c0.3,0.1,0.4,0.3,0.5,0.5c0.1,0.3,0.3,0.4,0.6,0.5c0.1,0,0.2,0,0.2,0.1
		c0,0.3,0.3,0.4,0.5,0.5c0,0,0.1,0.1,0.1,0.1c0,0.1-0.1,0.2-0.1,0.3c-0.1,0.3-0.2,0.5-0.1,0.8c0.1,0.2,0,0.4-0.1,0.6
		c-0.1,0.2-0.1,0.4-0.1,0.6C22.8,20.8,22.2,21.5,21.4,22.1z"/>
	<path class="st16" d="M23.4,20.1c-0.1-0.2-0.1-0.4,0-0.6c0.1-0.2,0.2-0.4,0.1-0.6c-0.2-0.4,0-0.8,0.2-1.1c0.2,0,0.4,0.2,0.6,0.2
		c0.3,0.3,0.3,0.3,0.1,0.6C24.1,19.1,23.8,19.6,23.4,20.1z"/>
	<path class="st17" d="M16.6,11.8c-0.1,0.1-0.2,0.3-0.3,0.5c-0.1-0.2,0.1-0.3,0.1-0.5c0.1-0.2,0.1-0.4,0.1-0.6
		c0-0.2-0.1-0.3-0.3-0.3c-0.2,0-0.3,0-0.4,0.1c-0.2,0.8-0.9,1-1.6,1.1c-0.2,0-0.3-0.1-0.4-0.2c-0.1-0.2-0.3-0.2-0.4,0
		c-0.2,0.2-0.4,0.4-0.6,0.6c-0.6,0.1-1.2-0.3-1.4-1c-0.1-0.2-0.1-0.5-0.1-0.7c0-0.2,0-0.3-0.2-0.3c-0.2,0-0.1,0.2-0.2,0.3
		c0,1,0.4,1.7,1.3,2c0.2,0.1,0.4,0,0.6,0.1c0.1,0.2,0.4,0,0.5,0.2c-1,0.4-2.1,0-2.6-1.1c-0.2-0.5-0.3-1.1-0.2-1.7
		c0.1-0.5,0.3-0.6,0.7-0.4c0.5,0.2,0.5,0.2,0.5,0.7c0,0.4,0.1,0.8,0.4,1.1c0.3,0.3,0.7,0.3,1.1,0c0,0,0.1-0.1,0.1-0.1
		c0.4-0.5,0.4-0.5,0.8-0.1c0.4,0.4,1,0.3,1.3-0.3c0.3-0.6,0.3-0.6,1-0.5c0.1,0,0.1,0,0.2,0c0,0,0.1,0.1,0.1,0.1
		c0.1,0.2,0.1,0.4,0,0.6C16.7,11.6,16.6,11.7,16.6,11.8C16.6,11.8,16.6,11.8,16.6,11.8z"/>
	<path class="st18" d="M11.3,5.4c0,0.1-0.1,0.1-0.2,0.2c-0.4,0.1-0.8,0.3-1.2,0.7C9.9,6.3,9.8,6.4,9.7,6.3c-0.1,0-0.1-0.2-0.1-0.3
		c0.1-0.4-0.1-0.8-0.3-1.2C9.2,4.7,9.2,4.5,9.4,4.4c0.1-0.1,0.2-0.2,0.2-0.3C9.9,3.8,9.9,3.8,10.2,4c0.5,0.3,0.9,0.7,1.1,1.2
		C11.3,5.3,11.3,5.4,11.3,5.4z"/>
	<path class="st19" d="M16.3,16.9c0.1,0.1,0.2,0.1,0.3,0.2c0.5,0.2,0.5,0.3,0.2,0.7c-0.3,0.4-0.6,0.7-1.1,0.8c-0.3,0-0.5,0.2-0.8,0
		c-0.1-0.5,0.1-0.9,0.2-1.3c0,0,0-0.1,0-0.1c0.2-0.5,0.2-0.5,0.7-0.4C16,16.9,16.2,16.9,16.3,16.9z"/>
	<path class="st20" d="M9.7,8.6C9.7,8.6,9.7,8.7,9.7,8.6c0.7,0.6,0.7,0.8,0.4,1.6c-0.4-0.1-0.7-0.4-0.9-0.7C9,9.3,9.1,8.9,9.3,8.6
		C9.3,8.4,9.5,8.5,9.7,8.6z"/>
	<path class="st21" d="M10.6,14c-0.2,0.1-0.2,0.5-0.5,0.4c-0.2,0-0.3-0.3-0.4-0.4c-0.1-0.1-0.3-0.3-0.4-0.4c0-0.3,0.3-0.5,0.5-0.7
		c0.1-0.2,0.2-0.3,0.4-0.4c0.3,0.1,0.4,0.3,0.6,0.5c0.3,0.2,0.4,0.4,0.2,0.6C10.9,13.8,10.8,14,10.6,14z"/>
	<path class="st22" d="M17.8,13.7c-0.2,0.1-0.4,0.1-0.6,0.1c-0.1-0.1-0.2-0.1-0.2-0.3c0-0.2-0.1-0.4-0.2-0.7c-0.1-0.2,0-0.4,0.2-0.5
		c0.1-0.1,0.3-0.1,0.4-0.2c0.3-0.2,0.7-0.1,0.7,0.3C18.3,13,18.3,13.4,17.8,13.7z"/>
	<path class="st12" d="M15,8.7c-0.1-0.1-0.3,0-0.4,0.1c-0.2,0.1-0.3,0-0.4-0.1c-0.1-0.1,0-0.2,0-0.3c0.1-0.2,0.2-0.1,0.3,0
		C14.7,8.5,15.1,8.3,15,8.7L15,8.7z"/>
	<path class="st12" d="M16.6,11.8c0.1-0.3,0.2-0.6,0.2-1c0.3,0.2,0.1,0.4,0.1,0.6C16.7,11.5,16.7,11.7,16.6,11.8z"/>
	<path class="st3" d="M21.9,24.3c0.1,0.2,0.1,0.3,0,0.4c0,0-0.1,0-0.1,0C21.7,24.6,21.8,24.5,21.9,24.3z"/>
	<path class="st3" d="M22.2,23.9c0,0.1-0.1,0.1-0.1,0c-0.1,0-0.1-0.1,0-0.1c0,0,0.1-0.1,0.1,0C22.2,23.8,22.2,23.8,22.2,23.9z"/>
	<path class="st3" d="M22.6,24.3c0,0-0.1,0.1-0.1,0.1c-0.1,0-0.1-0.1-0.1-0.2c0,0,0-0.1,0.1,0C22.5,24.2,22.6,24.3,22.6,24.3z"/>
	<path class="st3" d="M22.4,23.8c0.1-0.1,0.1,0,0.2,0c0,0,0.1,0.1,0,0.1c-0.1,0-0.1,0.1-0.2,0C22.4,23.9,22.4,23.9,22.4,23.8z"/>
	<path class="st23" d="M15.5,20.5c0.1,0,0.1-0.1,0.2-0.1c0.2-0.1,0.3-0.2,0.5,0.1c0.2,0.2,0.3,0.5,0.4,0.7c0.2,0.9,0,1.8-0.8,2.3
		c-0.3,0.2-0.5,0.5-0.7,0.9c-0.3,0.9-1,1.2-1.9,1.3c-0.9,0.1-1.5-0.2-1.9-1c-0.1-0.1-0.1-0.2-0.3-0.2c-1.4-0.3-1.9-1.8-1.4-3
		c0.2-0.4,0.3-0.4,0.7-0.2c0.1,0.1,0.2,0.1,0.3,0.2c0.2,0.1,0.3,0.3,0.2,0.6c-0.2,0.6,0,1,0.5,1.2c0.2,0.1,0.4,0,0.5,0
		c0.4-0.1,0.5,0,0.5,0.4c0,0.6,0.3,0.9,0.8,0.9c0.6-0.1,1-0.5,0.9-1.1c-0.1-0.6-0.1-0.6,0.5-0.7c0.7,0,1-0.7,0.7-1.3
		C15.1,20.9,15.1,20.9,15.5,20.5z"/>
	<path class="st24" d="M16.8,19.8c-0.1-0.1-0.2-0.2-0.3-0.3c-0.2-0.2-0.2-0.4,0.1-0.6c0.2-0.1,0.5-0.2,0.8-0.2
		c0.2,0,0.3,0.1,0.3,0.2c0.1,0.6,0.5,1,1,1.3c0.6,0.4,1.2,0.1,1.3-0.6c0-0.4,0.2-0.5,0.6-0.4c0.3,0.1,0.6,0.1,0.9-0.1
		c0.3-0.3,0.2-0.6,0.2-0.9c-0.1-0.2-0.2-0.4-0.4-0.6c-0.2-0.3-0.2-0.4-0.1-0.7c0-0.1,0.1-0.1,0.2-0.2c0.3-0.3,0.4-0.3,0.7-0.1
		c0.8,0.7,1.1,1.9,0.7,2.7c-0.3,0.7-0.8,1.1-1.5,1.2c-0.1,0-0.3,0-0.3,0.2c-0.1,0.1-0.2,0.2-0.2,0.3c0,0.2-0.2,0.2-0.3,0.3
		c-0.4,0.2-0.8,0.4-1.3,0.4c0-0.2,0.1-0.2,0.2-0.2c0.1,0,0.2-0.1,0.3-0.2c0.4-0.2,0.7-0.5,1-0.9c0.1-0.1,0.3-0.2,0.4-0.2
		c1.2-0.2,1.7-1.4,1.2-2.5c-0.1-0.2-0.2-0.4-0.4-0.5c-0.1-0.1-0.1-0.2-0.2-0.1c-0.1,0.1-0.1,0.2-0.1,0.3c0,0.1,0.1,0.2,0.2,0.3
		c0.3,0.4,0.4,0.8,0.2,1.2c-0.1,0.6-0.6,0.9-1.2,0.8c-0.3,0-0.4,0-0.5,0.4c-0.2,0.6-0.9,0.9-1.5,0.7c-0.1,0-0.2-0.1-0.3-0.1
		c-0.3-0.2-0.6-0.4-0.9-0.7c-0.1-0.1-0.2-0.1-0.3-0.1C17.1,19.9,16.9,19.8,16.8,19.8z"/>
	<path class="st25" d="M10.6,20.3c0-0.2,0.1-0.4,0.2-0.5c0.3-0.2,0.5-0.4,0.7-0.5c0.1,0,0.1,0,0.2-0.1c0.3,0.1,0.6,0.1,0.7,0.5
		c0,0.2,0,0.5,0,0.7c0,0.3-0.1,0.5,0,0.8c0,0.3-0.1,0.3-0.4,0.3c-0.6-0.1-1-0.5-1.3-1C10.6,20.4,10.6,20.4,10.6,20.3z"/>
	<path class="st26" d="M17.1,22.5c0.1-0.2,0.1-0.2,0.2-0.2c0.3,0,0.6-0.1,0.9-0.1c0.1,0,0.2,0,0.2,0.2c0,0,0,0.1,0,0.1
		c0.1,1-0.1,1.1-1,1.3c-0.1,0-0.2,0-0.3-0.1C17.1,23.2,17.1,22.8,17.1,22.5z"/>
	<path class="st27" d="M14.6,21.6c-0.1,0-0.1,0.1-0.2,0.1c-0.3,0.2-0.5,0.3-0.8,0.5c-0.2,0.1-0.3,0.1-0.4-0.1
		c-0.2-0.2-0.3-0.4-0.5-0.6c-0.1-0.1-0.1-0.2,0.1-0.3c0.3-0.2,0.6-0.4,1-0.6c0.1-0.1,0.2-0.1,0.3,0.1c0.2,0.3,0.3,0.5,0.5,0.8
		C14.6,21.5,14.6,21.6,14.6,21.6z"/>
	<path class="st28" d="M10.3,26.4c-0.4-0.2-0.7-0.5-1-0.9c-0.1-0.1-0.1-0.2,0-0.4c0.7-0.7,0.6-0.6,1.1,0c0.1,0.1,0.3,0.2,0.4,0.3
		c0.2,0.1,0.2,0.3,0.1,0.4c-0.1,0.2-0.2,0.3-0.3,0.5C10.7,26.5,10.5,26.4,10.3,26.4z"/>
	<path class="st29" d="M19.6,21.2c-0.1,0.2-0.1,0.3-0.3,0.3c-0.1,0-0.2,0-0.2,0.1c-0.8,0-1.4-0.4-1.9-1c-0.1-0.1-0.1-0.3,0-0.4
		c0,0,0.1,0,0.1,0c0.2,0,0.3,0.2,0.4,0.3c0.3,0.4,0.7,0.6,1.2,0.7C19.1,21.3,19.4,21,19.6,21.2z"/>
	<path class="st30" d="M14.4,19c0,0.1,0,0.3,0,0.4c0,0.1-0.1,0.2-0.2,0.3c-0.2,0-0.5-0.1-0.7-0.1c-0.2,0-0.3-0.1-0.3-0.4
		c0-0.3,0-0.5,0.1-0.8c0.2,0,0.2,0.2,0.2,0.3c0,0.4,0,0.5,0.4,0.5c0.1,0,0.2-0.1,0.2-0.2C14.2,19,14.2,18.9,14.4,19z"/>
	<path class="st31" d="M17.3,20.2C17.3,20.2,17.2,20.2,17.3,20.2c0-0.1,0.1-0.2,0-0.4c0.1,0,0.2-0.2,0.4,0
		C17.6,20.1,17.5,20.2,17.3,20.2z"/>
	<path class="st12" d="M20.3,21.3c0.1-0.1,0.2-0.2,0.3-0.3C20.7,21.2,20.6,21.3,20.3,21.3z"/>
	<path class="st32" d="M10.5,7.2c0.4-0.9,1.4-1.3,2.3-0.8c0.8,0.4,1.2,1.4,0.8,2.3c-0.4,0.9-1.4,1.3-2.3,0.9
		C10.5,9.1,10.1,8.1,10.5,7.2z"/>
	<path class="st33" d="M9.8,17.1c-0.4-0.8,0.1-2.1,1.4-2.3c0.7-0.1,1.4,0.2,1.7,0.9c0.3,0.6,0.3,1.5-0.1,1.9
		c-0.2,0.2-0.4,0.3-0.6,0.4C12,18,12,17.9,12,17.7c0.2-0.2,0.4-0.4,0.5-0.6c0.2-0.5,0.2-1.1-0.2-1.5c-0.4-0.4-0.9-0.6-1.5-0.3
		c-0.5,0.2-0.8,0.7-0.7,1.3c0,0.1,0.1,0.2,0,0.4C10,17.1,9.9,17.1,9.8,17.1z"/>
	<path class="st34" d="M13.5,13.2c-0.1-0.1-0.2,0-0.3,0c-0.2,0-0.2,0-0.2-0.2c0.1-0.2,0.3-0.2,0.4-0.3c0.3-0.2,0.6-0.2,1-0.1
		c0.8,0.2,1.6-0.3,1.9-1.1c0-0.1,0.1-0.3,0-0.3c-0.2-0.1-0.2,0.1-0.3,0.2c-0.1,0.2-0.2,0.4-0.4,0.5c-0.3,0.3-0.6,0.4-1,0.4
		c-0.1,0-0.3,0-0.3-0.2c0.1-0.1,0.3-0.1,0.4-0.2c0.5-0.1,0.9-0.3,1-0.8c0.1-0.2,0.2-0.3,0.4-0.3c0.3,0,0.5,0.2,0.5,0.5
		c0,0.2-0.1,0.4-0.2,0.6c0,0.1-0.1,0.3-0.2,0.4c-0.5,0.6-1.1,0.9-1.9,0.7C14,13,13.7,13,13.5,13.2z"/>
	<path class="st35" d="M14,15.8c-0.2-0.2-0.4-0.4-0.5-0.6c-0.1-0.1,0-0.2,0.1-0.3c0.3-0.2,0.7-0.5,0.9-0.8c0.1-0.1,0.2-0.1,0.3,0
		c0.1,0.2,0.3,0.3,0.5,0.5c0.1,0.1,0.1,0.2,0,0.3c-0.3,0.3-0.6,0.6-1,0.8C14.1,15.8,14.1,15.8,14,15.8z"/>
	<path class="st36" d="M14.7,10.8c-0.2-0.3-0.5-0.5-0.7-0.9c0-0.1,0-0.1,0.1-0.2c0.4-0.2,0.7-0.5,1.1-0.7c0.1-0.1,0.2,0,0.3,0.1
		c0.1,0.3,0.3,0.5,0.4,0.8c0.1,0.1,0.1,0.2-0.1,0.3c-0.3,0.2-0.6,0.4-0.8,0.6C14.9,10.8,14.9,10.8,14.7,10.8z"/>
	<path class="st11" d="M12.4,19.7c-0.2-0.2-0.5-0.4-0.7-0.5c0.3,0,0.3-0.1,0.3-0.3c0-0.3,0.1-0.5,0.3-0.7c0.1-0.1,0.3-0.1,0.4,0.1
		C13.1,18.8,13,19,12.4,19.7z"/>
	<path class="st37" d="M10,18.7c0.4,0.4,0.2,0.8-0.1,1.2c-0.2,0.3-0.3,0.3-0.5,0c-0.1-0.1-0.1-0.2-0.2-0.3c0-0.1-0.2-0.2-0.1-0.3
		c0.1-0.3,0.2-0.6,0.4-0.9c0.1-0.2,0.2-0.1,0.4,0C9.9,18.5,10,18.6,10,18.7z"/>
	<path class="st38" d="M12,17.8c0.1,0.1,0.1,0.2,0.1,0.3c-0.8,0.5-2.1,0.1-2.4-0.9C9.8,17,10,17,10.1,17c0.1,0,0.1,0.1,0.2,0.1
		c0.2,0.3,0.4,0.5,0.8,0.6c0.1,0,0.2,0.1,0.3,0.1C11.5,17.9,11.8,17.8,12,17.8z"/>
	<path class="st9" d="M10.6,14c0-0.1,0.1-0.1,0.1-0.2c0.3-0.4,0.3-0.4,0-0.7c0.1-0.1,0.3-0.2,0.4,0c0.1,0.2,0.2,0.4,0.1,0.6
		c-0.1,0.2,0,0.3,0,0.5c0,0.1,0.2,0.3,0,0.4c-0.2,0.1-0.3,0-0.3-0.2c0-0.1-0.1-0.1-0.2-0.1c-0.1,0-0.1,0.1-0.1,0.1
		c0,0.3-0.1,0.2-0.2,0.1C10.7,14.3,10.5,14.2,10.6,14z"/>
	<path class="st39" d="M13.5,18.7c0-0.1,0-0.3-0.1-0.3c0-0.2,0.1-0.4,0.2-0.5c0-0.1,0.1-0.1,0.2-0.1c0.1,0,0.2,0,0.3,0
		c0.6,0.1,0.6,0.1,0.4,0.7c0,0.2,0,0.3,0,0.5c-0.1,0-0.2,0.1-0.2,0.2c-0.2-0.2-0.1-0.4-0.1-0.6c0-0.1,0.1-0.3,0-0.4
		c-0.4-0.1-0.3,0.2-0.4,0.4C13.6,18.6,13.6,18.7,13.5,18.7z"/>
	<path class="st9" d="M12.8,9.9c0,0,0.1,0,0.2,0c0.3,0.1,0.5,0.3,0.4,0.6c0,0.1-0.4,0.2-0.5,0.2c-0.2-0.1-0.1-0.2,0-0.2
		c0.1-0.1,0.1-0.2-0.1-0.3c-0.1,0-0.1-0.1-0.2-0.1c-0.1-0.1-0.3,0-0.2-0.2C12.4,9.9,12.6,9.7,12.8,9.9z"/>
	<path class="st9" d="M11.2,9.7c-0.2,0-0.3,0.1-0.4,0.1c-0.1,0-0.2,0.1-0.3,0c-0.1-0.1,0-0.2,0.1-0.3c0.1-0.1,0.1-0.1,0.2-0.1
		C10.9,9.5,11.1,9.5,11.2,9.7z"/>
	<path class="st9" d="M9.3,16.8c-0.1-0.1-0.2,0-0.3,0.1c-0.1-0.4,0.1-0.6,0.3-0.8C9.1,16.3,9.4,16.5,9.3,16.8z"/>
	<path class="st9" d="M9.8,15c0.1,0,0.1,0.1,0.2,0.1c0,0-0.1,0.1-0.1,0.1c-0.1,0-0.1,0.2-0.2,0.1c-0.1,0-0.1-0.1-0.1-0.2
		C9.6,15,9.6,15,9.8,15z"/>
	<path class="st9" d="M9.7,14.3c0.3,0,0.2,0.2,0.1,0.3C9.7,14.6,9.7,14.5,9.7,14.3z"/>
	<path class="st40" d="M9.5,18.4c-0.1,0.3-0.3,0.6-0.4,0.9C9.1,18.9,9.3,18.7,9.5,18.4z"/>
	<path class="st9" d="M11.7,13.9c0-0.1,0.1-0.1,0.1-0.1c0.1,0,0.1,0.1,0.1,0.1c0,0.1-0.1,0.1-0.2,0.1C11.7,14.1,11.7,14,11.7,13.9z"
		/>
	<path class="st41" d="M17.8,17.5c-0.9-0.4-1.3-1.4-0.8-2.3c0.4-0.9,1.4-1.2,2.3-0.8c0.9,0.4,1.3,1.5,0.9,2.3
		C19.7,17.5,18.7,17.9,17.8,17.5z"/>
	<path class="st42" d="M14.2,12.1c0.6,0.3,1.2,0,1.6-0.7c0.1-0.1,0.1-0.3,0.3-0.3c0.2,0,0.3,0,0.2,0.3c-0.2,0.9-1,1.6-2,1.4
		c-0.4-0.1-0.7-0.1-1,0.1c0,0,0,0-0.1,0c-0.1,0-0.3,0.1-0.3-0.1c-0.1-0.1,0.1-0.2,0.2-0.3c0.1-0.1,0.1-0.1,0.1-0.2
		c0.1-0.2,0.2-0.3,0.3-0.4c0.1-0.1,0.2-0.2,0.3,0C14,11.9,14.1,12,14.2,12.1z"/>
	<path class="st43" d="M13.3,12.3c0.2,0.1,0.2,0.2,0,0.3c-0.1,0-0.2,0-0.2,0.2c0,0.1,0.2,0,0.3,0.1c-0.1,0.1-0.3,0.1-0.4,0.2
		c-0.5,0-1-0.2-1.4-0.5c-0.6-0.6-0.7-1.2-0.6-2c0-0.2,0.1-0.2,0.2-0.1c0.2,0,0.3,0,0.3,0.3c0,0.2,0,0.3,0,0.5c0,0.4,0.2,0.8,0.5,1.1
		c0.2,0.2,0.5,0.3,0.9,0.3C13,12.3,13.1,12.2,13.3,12.3z"/>
	<path class="st34" d="M13.3,12.3c-0.1,0-0.3,0.1-0.4,0.1c0.2-0.3,0.4-0.5,0.7-0.7c0.1-0.1,0.2,0,0.3,0.2
		C13.5,11.8,13.5,12.2,13.3,12.3z"/>
	<path class="st44" d="M10.3,5.5c0.1,0,0-0.1,0-0.2C10.2,5.1,10.1,5,9.9,4.9c-0.4-0.2-0.3-0.5,0-0.7c0.1,0,0.1,0,0.2,0
		c0.4,0.2,0.7,0.5,0.9,0.9c0.1,0.2,0.1,0.3-0.1,0.4c-0.2,0.1-0.3,0.2-0.5,0.2C10.2,5.6,10.2,5.6,10.3,5.5z"/>
	<path class="st45" d="M10.3,5.5c0,0.1,0.1,0.2,0.1,0.2c-0.1,0.1-0.2,0.2-0.4,0.2c0-0.2-0.1-0.5-0.1-0.7C10,5.2,10.1,5.4,10.3,5.5z"
		/>
	<path class="st46" d="M15.4,17.4c0-0.3,0.2-0.3,0.5-0.2c0.2,0.1,0.5,0.1,0.7,0.2c0.1,0.1,0.2,0.1,0.1,0.2c-0.3,0.4-0.6,0.7-1.1,0.8
		c-0.3,0.1-0.4,0-0.3-0.3C15.3,17.9,15.3,17.6,15.4,17.4z"/>
	<path class="st47" d="M10.1,14c-0.1-0.2-0.4-0.3-0.4-0.5c0-0.2,0.3-0.4,0.4-0.6c0.1-0.1,0.1,0,0.2,0.1c0.1,0.1,0.2,0.2,0.2,0.2
		c0.2,0.1,0.2,0.3,0,0.5c-0.1,0.1-0.2,0.2-0.3,0.3C10.2,14,10.2,14.1,10.1,14z"/>
	<path class="st48" d="M17.9,13.2c-0.1,0.2-0.3,0.3-0.5,0.4c0,0-0.1,0-0.1,0c-0.1-0.3-0.2-0.5-0.2-0.8c0-0.1,0.5-0.4,0.7-0.4
		c0.1,0,0.1,0,0.1,0.1C17.9,12.7,18,13,17.9,13.2z"/>
	<path class="st49" d="M16.2,22.6c-0.1,0.4-0.5,0.7-0.9,0.9c-0.2,0.1-0.3,0.2-0.3,0.4c-0.2,1.3-1.7,1.7-2.5,1.4
		c-0.4-0.1-0.6-0.4-0.8-0.8c-0.1-0.2-0.2-0.3-0.4-0.4c-1.1-0.2-1.6-1.4-1.3-2.3c0-0.1,0.1-0.3,0.2-0.2c0.1,0.1,0.3,0.1,0.3,0.4
		c-0.2,0.6,0,1.1,0.5,1.5c0.2,0.2,0.5,0.2,0.8,0.2c0.3-0.1,0.3,0.1,0.3,0.3c0.1,0.4,0.2,0.7,0.6,0.8c0.5,0.2,0.9,0.1,1.3-0.2
		c0.4-0.3,0.5-0.6,0.4-1.1c0-0.3,0-0.4,0.3-0.4c0.9-0.1,1.3-1,1-1.7c-0.1-0.2-0.2-0.4,0.1-0.5c0.2-0.1,0.3-0.1,0.3,0.1
		C16.3,21.3,16.5,22,16.2,22.6z"/>
	<path class="st50" d="M19.6,21.2c-0.2,0-0.5,0.1-0.7,0c-0.1-0.2-0.4-0.4-0.4-0.7c0.7,0.3,1.2,0.2,1.6-0.3c0-0.1,0.1-0.1,0.1-0.2
		c0-0.4,0.2-0.5,0.6-0.5c1,0.1,1.4-1.1,1-1.8c-0.1-0.1-0.2-0.3-0.3-0.4c-0.1-0.1-0.1-0.1-0.1-0.2c0-0.1,0.1-0.3,0.2-0.4
		c0.1-0.1,0.2,0.1,0.3,0.2c0.5,0.5,0.8,1.6,0.5,2.2c-0.2,0.5-0.6,0.9-1.2,0.9c-0.3,0-0.5,0.1-0.6,0.4C20.3,20.9,20,21.1,19.6,21.2z"
		/>
	<path class="st51" d="M18.5,20.6c0.1,0.2,0.4,0.4,0.4,0.7c-0.6,0-1-0.3-1.3-0.8c-0.1-0.1-0.1-0.2-0.3-0.3c0.1-0.1,0.2-0.2,0.3-0.4
		C17.9,20.1,18.2,20.3,18.5,20.6z"/>
	<path class="st52" d="M16.8,19.5c-0.1-0.1-0.3-0.2-0.2-0.3c0.1-0.2,0.4-0.3,0.6-0.2c0.2,0,0.2,0.3,0.1,0.4
		C17.2,19.5,17,19.6,16.8,19.5z"/>
	<path class="st53" d="M11.7,21.1c-0.3-0.1-0.5-0.4-0.7-0.7c-0.1-0.1-0.1-0.3,0.1-0.3c0.2-0.1,0.3-0.2,0.4-0.3
		c0.1-0.1,0.2-0.2,0.3-0.1c0.1,0.1,0.4,0.2,0.4,0.4c0,0.3,0,0.5-0.1,0.8C12,21.3,12,21.3,11.7,21.1z"/>
	<path class="st54" d="M17.4,23.4c0,0,0-0.1,0-0.1c0-0.1,0-0.2,0-0.2c0-0.5,0.1-0.6,0.6-0.6c0,0,0.1,0,0.1,0
		c0.2,0.2,0.1,0.4,0.1,0.6c0,0.1,0,0.2-0.1,0.2c-0.2,0-0.4,0.1-0.6,0.2C17.5,23.4,17.5,23.4,17.4,23.4z"/>
	<path class="st55" d="M13,21.4c0.3-0.2,0.6-0.4,0.9-0.5c0,0,0.1,0.1,0.1,0.1c0.4,0.5,0.3,0.5-0.1,0.9c-0.1,0.1-0.1,0.1-0.2,0.2
		c-0.1,0.1-0.2,0.1-0.3,0c-0.1-0.1-0.2-0.2-0.3-0.4C13,21.5,12.9,21.5,13,21.4z"/>
	<path class="st56" d="M10.8,25.8c-0.2,0.4-0.3,0.4-0.6,0.1c-0.1-0.1-0.2-0.3-0.4-0.4c-0.2-0.2-0.2-0.3,0-0.5c0.2-0.2,0.3-0.2,0.4,0
		c0.2,0.2,0.3,0.3,0.5,0.4C10.9,25.6,10.9,25.7,10.8,25.8z"/>
	<path class="st57" d="M14.1,18.1c0.2,0,0.1,0.2,0.1,0.3c0,0.3-0.1,0.5-0.1,0.8c-0.1,0.4-0.4,0.1-0.6,0.1c-0.2,0-0.2-0.1-0.2-0.3
		c0-0.1,0-0.2,0-0.3c0-0.1,0.1-0.2,0.1-0.2C13.7,18.3,14,18.3,14.1,18.1z"/>
	<path class="st58" d="M10.8,7.4c0.2-0.7,1.1-1.1,1.9-0.7c0.7,0.4,1,1.1,0.6,1.8c-0.3,0.7-1.2,1-1.9,0.7C10.8,8.9,10.5,8,10.8,7.4z"
		/>
	<path class="st58" d="M11,17.9c-0.4-0.1-0.8-0.4-0.9-0.9c-0.2-0.9,0.1-1.6,1-1.8c0.6-0.2,1.1,0.1,1.4,0.5c0.3,0.4,0.4,0.8,0.2,1.3
		c-0.1,0.3-0.3,0.6-0.6,0.8c-0.2,0.2-0.5,0.2-0.8,0.1C11.2,17.8,11.1,17.8,11,17.9z"/>
	<path class="st59" d="M15,14.9c-0.2,0.3-0.5,0.5-0.8,0.6c-0.2,0.1-0.3-0.2-0.4-0.3c-0.1-0.2,0.1-0.2,0.1-0.3
		c0.2-0.1,0.3-0.3,0.5-0.4c0.2-0.2,0.3-0.2,0.4,0C14.8,14.6,15,14.7,15,14.9z"/>
	<path class="st60" d="M14.8,10.5c-0.2-0.2-0.3-0.4-0.4-0.5c-0.1-0.1,0-0.1,0.1-0.2c0.2-0.1,0.4-0.3,0.6-0.4
		c0.1-0.1,0.2-0.1,0.3,0.1c0,0,0,0,0,0.1c0.1,0.2,0.3,0.4,0.2,0.5C15.4,10.2,15.1,10.3,14.8,10.5C14.9,10.5,14.8,10.5,14.8,10.5z"/>
	<path class="st40" d="M9.5,18.9c0-0.1,0-0.2,0.2-0.2c0.1,0,0.1,0.1,0.2,0.2c0.2,0.3,0.2,0.5-0.1,0.7c-0.1,0.1-0.1,0-0.2,0
		C9.4,19.4,9.3,19.2,9.5,18.9z"/>
	<path class="st61" d="M11,17.9c0-0.1,0.1-0.2,0.2-0.2c0.1,0,0.1,0.1,0.1,0.2C11.1,18,11.1,17.9,11,17.9z"/>
	<path class="st62" d="M14.1,18.1c-0.1,0.3-0.4,0.3-0.6,0.4C13.6,18,13.7,18,14.1,18.1z"/>
	<path class="st63" d="M19.1,14.7c0.6,0.2,1,1.2,0.7,1.8c-0.3,0.7-1.1,1-1.8,0.7c-0.9-0.4-1.1-1.2-0.8-1.9
		C17.5,14.7,18.3,14.2,19.1,14.7z"/>
	<path class="st32" d="M11.2,7.5c0.2-0.5,0.8-0.7,1.2-0.5c0.4,0.2,0.6,0.8,0.5,1.3c-0.2,0.4-0.8,0.6-1.2,0.4C11.2,8.5,11,8,11.2,7.5
		z"/>
	<path class="st64" d="M11,17.4c-0.5-0.2-0.7-0.7-0.5-1.2c0.2-0.5,0.8-0.7,1.2-0.5c0.5,0.2,0.7,0.8,0.5,1.3
		C12,17.4,11.5,17.6,11,17.4z"/>
	<path class="st65" d="M18.9,15.1c0.5,0.2,0.7,0.8,0.5,1.2c-0.2,0.5-0.8,0.7-1.3,0.4c-0.6-0.3-0.6-0.8-0.4-1.3
		C17.8,15.1,18.4,14.9,18.9,15.1z"/>
	<path class="st66" d="M11.8,8.5c-0.3-0.1-0.4-0.5-0.3-0.8c0.1-0.3,0.5-0.4,0.8-0.3c0.3,0.1,0.4,0.5,0.3,0.8
		C12.5,8.5,12.1,8.6,11.8,8.5z"/>
	<path class="st67" d="M11.4,17.2c-0.2,0-0.4-0.1-0.5-0.2c-0.2-0.4,0-0.8,0.4-0.9c0.3-0.1,0.5,0.1,0.6,0.4c0.1,0.2-0.1,0.6-0.3,0.7
		C11.5,17.1,11.4,17.1,11.4,17.2z"/>
	<path class="st68" d="M11.4,17.2c0.1-0.1,0.3-0.2,0.4-0.3c0.1-0.3,0.1-0.5-0.1-0.7c-0.2-0.2-0.4-0.1-0.5,0
		c-0.2,0.1-0.3,0.3-0.3,0.6c0,0.1,0,0.1,0,0.2c-0.2-0.2-0.2-0.5-0.1-0.7c0.1-0.2,0.5-0.3,0.8-0.2c0.3,0.1,0.4,0.4,0.4,0.6
		C11.9,17,11.7,17.2,11.4,17.2z"/>
	<path class="st69" d="M18.3,16.5c-0.3-0.2-0.5-0.5-0.3-0.8c0.2-0.3,0.5-0.4,0.8-0.3c0.3,0.1,0.4,0.5,0.3,0.8
		C18.9,16.5,18.6,16.6,18.3,16.5z"/>
</g>
</svg>
