<?xml version="1.0" encoding="utf-8"?>
<!-- Generator: Adobe Illustrator 27.3.1, SVG Export Plug-In . SVG Version: 6.00 Build 0)  -->
<svg version="1.1" id="Layer_1" xmlns="http://www.w3.org/2000/svg" xmlns:xlink="http://www.w3.org/1999/xlink" x="0px" y="0px"
	 viewBox="0 0 512 512" style="enable-background:new 0 0 512 512;" xml:space="preserve">
<style type="text/css">
	.st0{fill:#F7BEA0;}
	.st1{fill:#FDF0BB;}
	.st2{fill:#D55406;}
	.st3{fill:#F79E42;}
	.st4{fill:#737584;}
	.st5{fill:#575A61;}
	.st6{fill:#638D23;}
	.st7{fill:#E25305;}
	.st8{fill:#ECA028;}
	.st9{fill:#484325;}
</style>
<g>
	<circle class="st0" cx="243.8" cy="268.2" r="242.9"/>
	<g>
		<g>
			<path class="st1" d="M47.7,468.2c-1.8,0-3-0.7-3.5-1.4c-0.5-0.7-0.5-1.8-0.4-2.6l139.4-382l86.6-8.5l114.9,88.9l54.6,69l9.3,54.1
				L346,334.1c-4.8,2.3-7.4,7.5-6.4,12.7c5.5,27.5-3.7,47.7-15.6,53.4c-3.2,1.5-7.1,2.4-10.7,2.4c-3.3,0-6.3-0.7-9.1-2
				c-12.6-5.8-14.2-22.5-14.2-22.7c-0.3-3.7-2.4-7.1-5.6-9c-1.8-1.1-3.8-1.6-5.8-1.6c-1.6,0-3.2,0.3-4.7,1l-40.4,18.1
				c-5.5,2.5-8.2,8.8-6.1,14.4c9.4,25.9,0.9,50.3-12.7,56c-2.5,1.1-5.6,1.6-8.8,1.6c-6.8,0-13.4-2.5-18.2-6.9
				c-9.8-8.9-8.7-22.2-8.6-23.7c0.4-4.1-1.4-8.1-4.7-10.5c-2-1.4-4.3-2.2-6.7-2.2c-1.6,0-3.2,0.3-4.8,1L49.4,468
				C48.8,468.1,48.3,468.2,47.7,468.2z"/>
			<g>
				<path class="st2" d="M266.4,85.6l110.2,85.2l51.9,65.6l7.3,42.6l-94.7,44.7c-9.6,4.5-14.8,15-12.7,25.3
					c4.5,22.6-2.9,37.7-9.3,40.7c-1.3,0.6-3.4,1.2-5.8,1.2c-1.6,0-3-0.3-4.3-0.9c-6-2.8-7.5-12.8-7.6-13.4
					c-0.7-7.4-4.8-13.9-11.2-17.7c-3.6-2.1-7.7-3.2-11.7-3.2c-3.2,0-6.4,0.7-9.4,2L228.8,376c-11,4.9-16.3,17.5-12.2,28.8
					c3.8,10.4,4.4,21,1.7,29.8c-2.1,7-5.6,10.6-8,11.6c-0.4,0.2-1.9,0.7-4.4,0.7c-1.9,0-6.7-0.4-10.5-3.9c-5.6-5.1-4.9-13.9-4.9-14
					c0.9-8.2-2.8-16.2-9.4-21.1c-4-2.9-8.7-4.3-13.4-4.3c-3.2,0-6.5,0.7-9.5,2.1L61.3,450l64.2-175.8l66-181.2L266.4,85.6
					 M273.2,61.8l-98.3,9.7C127.5,201.4,80.1,331.2,32.7,461.1c-0.3,1.1-1.6,7.1,2,12.3c2.8,4,7.6,6.3,12.9,6.3
					c1.9,0,3.9-0.3,5.8-0.9l114.3-52c-0.2,2.1-1.8,20.6,12.3,33.4c7.6,6.9,17.2,9.9,26,9.9c4.8,0,9.4-0.9,13.2-2.5
					c19.2-8,30.8-38.2,19-70.5l40.4-18.1c0.1,1.1,2.2,23.6,20.9,32.2c4.7,2.2,9.5,3,13.9,3c6.1,0,11.6-1.6,15.7-3.5
					c18.2-8.7,28-35.5,21.9-66l110.5-52.2l-11.3-65.6l-57.3-72.4L273.2,61.8L273.2,61.8z"/>
			</g>
		</g>
		<g>
			<path class="st3" d="M469.1,282.6c-6.7,0-13.3-1.8-19.2-5.3C423.6,227.1,386,182.4,341,148c-43.1-33-93.7-57.1-146.5-69.9
				c-11.5-13-15.4-30-9.8-43.2c5.8-13.5,21.5-22.5,39.1-22.5c8.1,0,16.1,1.9,23.6,5.7c0.3,0.1,0.5,0.3,0.8,0.4
				c54.9,22.1,105.5,51.5,150.2,87.3c75.8,60.7,90,106,96.8,127.8c0.8,2.5,1.5,4.7,2.2,6.6c4.2,11.9,2.1,24.8-5.2,32.9
				C486.7,279.2,478.3,282.6,469.1,282.6z"/>
			<path class="st2" d="M223.8,23.9c6.3,0,12.6,1.5,18.5,4.5c0.5,0.3,1.1,0.5,1.7,0.7c53.9,21.7,103.4,50.5,147.3,85.6
				c73.1,58.5,86.5,101.5,93,122.2c0.8,2.5,1.5,4.9,2.3,7c2.8,8,1.7,16.4-2.9,21.4c-3.3,3.7-8.6,5.8-14.5,5.8
				c-2.7,0-6.6-0.5-10.7-2.3c-27-50.4-65.1-95.2-110.4-129.9c-43.3-33.2-94-57.6-147-71c-6.8-9.2-9.2-20.3-5.7-28.4
				C199.2,30.3,210.9,23.9,223.8,23.9L223.8,23.9 M223.8,0.9c-22.3,0-42.2,12-49.7,29.5c-7.7,18.1-2,41.5,14.3,58.1
				c32.2,7.5,88.5,24.9,145.6,68.6c59.8,45.8,91.8,98.5,107.1,128.2c8.7,6,18.5,8.8,28,8.8c12.2,0,23.7-4.7,31.6-13.3
				c10.4-11.5,13.1-28.7,7.5-44.5c-6.5-18.4-15.6-69.9-102.6-139.5c-32.1-25.7-82.6-60.7-153.1-89C243.1,3,233.2,0.9,223.8,0.9
				L223.8,0.9z"/>
		</g>
		<g>
			<path class="st4" d="M331.4,297c-26.2,0-47.5-21.3-47.5-47.5s21.3-47.5,47.5-47.5s47.5,21.3,47.5,47.5S357.6,297,331.4,297z
				 M331.4,217.4c-17.7,0-32.1,14.4-32.1,32.1s14.4,32.1,32.1,32.1s32.1-14.4,32.1-32.1S349.1,217.4,331.4,217.4z"/>
			<path class="st5" d="M331.4,203.5c25.4,0,46,20.6,46,46s-20.6,46-46,46s-46-20.6-46-46S306,203.5,331.4,203.5 M331.4,283.1
				c18.5,0,33.6-15,33.6-33.6c0-18.5-15-33.6-33.6-33.6c-18.5,0-33.6,15-33.6,33.6C297.8,268,312.9,283.1,331.4,283.1 M331.4,200.5
				c-27,0-49,22-49,49s22,49,49,49s49-22,49-49S358.4,200.5,331.4,200.5L331.4,200.5z M331.4,280.1c-16.9,0-30.6-13.7-30.6-30.6
				s13.7-30.6,30.6-30.6s30.6,13.7,30.6,30.6S348.2,280.1,331.4,280.1L331.4,280.1z"/>
		</g>
		<path class="st6" d="M246.3,234c0,0-60.8-29.9-89.3,28.2C157,262.2,215.1,295.4,246.3,234z"/>
		<circle class="st7" cx="145.2" cy="336.1" r="43.5"/>
		<circle class="st8" cx="298.9" cy="173.4" r="13.6"/>
		<path class="st9" d="M249.3,281.7c-15.4,0-27.9,12.5-27.9,27.9c0,15.4,12.5,27.9,27.9,27.9c15.4,0,27.9-12.5,27.9-27.9
			C277.2,294.2,264.7,281.7,249.3,281.7z M249.3,322.2c-6.9,0-12.6-5.6-12.6-12.6c0-6.9,5.6-12.5,12.6-12.5s12.6,5.6,12.6,12.5
			C261.9,316.5,256.2,322.2,249.3,322.2z"/>
		<path class="st7" d="M217.4,117.1c-8.5,0-16.5,2.5-23.2,6.7c4.6,6.9,7.3,15.2,7.3,24.2c0,15.5-8.1,29-20.3,36.8
			c7.8,11.6,21.1,19.3,36.1,19.3c24,0,43.5-19.5,43.5-43.5C260.9,136.6,241.4,117.1,217.4,117.1z"/>
	</g>
</g>
</svg>
